<svg xmlns="http://www.w3.org/2000/svg" xmlns:xlink="http://www.w3.org/1999/xlink" width="529.805" height="450.613" viewBox="0 0 529.805 450.613">
  <defs>
    <clipPath id="clip-path">
      <path id="Path_68040" data-name="Path 68040" d="M156.571,23.027c-9.907,6.106-19.6,15.88-31.041,13.75-6.923-1.288-12.17-6.726-17.847-10.889-21.336-15.642-52.815-13.3-74.113,2.39S.852,70.8.051,97.24,8.1,149.7,21.085,172.753c6.293,11.175,13.166,22.626,21.2,33.011A147.98,147.98,0,0,0,40.309,249.6c.973,9.371.851,18.594-2.268,27.486C-86.3,438.817,198.522,466.375,301.013,424.409c87.45-24.675,133.7-74.976,148.023-130.216,28.951-9.149,55.907-26.882,70.461-53.352,8.822-16.049,12.69-35.154,8.794-53.048s-16.062-34.234-32.933-41.361c-11.456-4.839-24.46-5.414-35.584-10.971-24.69-12.333-32.428-44.4-53.807-61.851-12.308-10.048-28.147-14.444-43.484-18.59Q302.266,38.743,242.049,22.468c-16.078-4.347-33.387-8.539-49.916-8.54-12.6,0-24.752,2.437-35.563,9.1" transform="translate(0 -13.928)" fill="none"/>
    </clipPath>
  </defs>
  <g id="Group_55353" data-name="Group 55353" transform="translate(1811 -23863)">
    <g id="Group_55348" data-name="Group 55348" transform="translate(-1811 23878.078)">
      <g id="Group_55347" data-name="Group 55347" transform="translate(0 0)" clip-path="url(#clip-path)">
        <path id="Path_67802" data-name="Path 67802" d="M197.312,69.349c-33.9,8.144-69.869,23.041-99.935,44.717-41.622,30-62.918,80.4-57.618,131.431.974,9.369.852,18.593-2.266,27.485C-86.853,434.713,197.975,462.272,300.465,420.305,573.448,343.278,444.934,16.543,197.312,69.349" transform="translate(0.548 -9.824)" fill="#c7d7ea"/>
        <path id="Path_67803" data-name="Path 67803" d="M97.112,307.907c1.327-1.2,1.469-3.142.159-4.016a2.7,2.7,0,0,0-2.96.212,3.413,3.413,0,0,0-1.191,1.414,16.765,16.765,0,0,1-1.061,2.108c-1.138,1.83-2.18,3.633-2.18,3.633s1.883-.849,3.808-1.793a10.244,10.244,0,0,1,2.008-.792,3.306,3.306,0,0,0,1.417-.765" transform="translate(7.425 9.998)" fill="#a1cec5"/>
        <path id="Path_67804" data-name="Path 67804" d="M61.114,334.064c-1.327,1.2-1.469,3.142-.159,4.016a2.7,2.7,0,0,0,2.96-.212,3.413,3.413,0,0,0,1.191-1.414,16.769,16.769,0,0,1,1.061-2.108c1.138-1.83,2.18-3.633,2.18-3.633s-1.882.848-3.808,1.792a10.179,10.179,0,0,1-2.008.794,3.306,3.306,0,0,0-1.417.765" transform="translate(4.96 12.242)" fill="#a1cec5"/>
        <path id="Path_67805" data-name="Path 67805" d="M92.169,339.007c1.2,1.327,3.142,1.469,4.016.159a2.7,2.7,0,0,0-.212-2.96,3.408,3.408,0,0,0-1.415-1.191,16.824,16.824,0,0,1-2.107-1.061c-1.83-1.138-3.633-2.18-3.633-2.18s.848,1.883,1.792,3.808a10.154,10.154,0,0,1,.794,2.008,3.306,3.306,0,0,0,.765,1.417" transform="translate(7.337 12.33)" fill="#a1cec5"/>
        <path id="Path_67806" data-name="Path 67806" d="M66.012,303.009c-1.2-1.327-3.142-1.469-4.016-.159a2.7,2.7,0,0,0,.212,2.96A3.413,3.413,0,0,0,63.622,307a16.768,16.768,0,0,1,2.108,1.061c1.83,1.138,3.633,2.18,3.633,2.18s-.849-1.883-1.793-3.808a10.215,10.215,0,0,1-.792-2.008,3.306,3.306,0,0,0-.765-1.417" transform="translate(5.092 9.865)" fill="#a1cec5"/>
        <path id="Path_67807" data-name="Path 67807" d="M77.738,298.844c.092-1.787,1.506-3.124,3.013-2.661a2.7,2.7,0,0,1,1.705,2.427,3.414,3.414,0,0,1-.343,1.818,16.892,16.892,0,0,0-.964,2.153c-.7,2.039-1.438,3.986-1.438,3.986s-.533-2-1.017-4.084a10.258,10.258,0,0,0-.655-2.058,3.318,3.318,0,0,1-.3-1.582" transform="translate(6.421 9.382)" fill="#a1cec5"/>
        <path id="Path_67808" data-name="Path 67808" d="M80.215,343.337c-.092,1.787-1.506,3.124-3.013,2.661a2.7,2.7,0,0,1-1.705-2.427,3.414,3.414,0,0,1,.343-1.818A16.827,16.827,0,0,0,76.8,339.6c.7-2.039,1.438-3.986,1.438-3.986s.533,2,1.017,4.084a10.325,10.325,0,0,0,.654,2.058,3.305,3.305,0,0,1,.3,1.582" transform="translate(6.236 12.647)" fill="#a1cec5"/>
        <path id="Path_67809" data-name="Path 67809" d="M56.949,322.11c-1.787-.092-3.124-1.506-2.661-3.013a2.7,2.7,0,0,1,2.427-1.705,3.414,3.414,0,0,1,1.818.343,16.823,16.823,0,0,0,2.153.964c2.039.7,3.986,1.438,3.986,1.438s-2,.533-4.084,1.017a10.188,10.188,0,0,0-2.058.655,3.318,3.318,0,0,1-1.582.3" transform="translate(4.477 11.141)" fill="#a1cec5"/>
        <path id="Path_67810" data-name="Path 67810" d="M101.442,319.633c1.787.092,3.124,1.507,2.661,3.013a2.7,2.7,0,0,1-2.427,1.705,3.414,3.414,0,0,1-1.818-.343,16.823,16.823,0,0,0-2.153-.964c-2.039-.7-3.986-1.438-3.986-1.438s2-.533,4.084-1.017a10.324,10.324,0,0,0,2.058-.654,3.305,3.305,0,0,1,1.582-.3" transform="translate(7.742 11.327)" fill="#a1cec5"/>
        <path id="Path_67811" data-name="Path 67811" d="M97.47,330.324a19.062,19.062,0,1,1-9.041-25.4,19.062,19.062,0,0,1,9.041,25.4" transform="translate(5.054 9.96)" fill="#bad8d3"/>
        <path id="Path_67812" data-name="Path 67812" d="M92.514,299.337l-2.553-1.213-2.552-1.213c.591,2.945-2.067,8.08-2.733,9.3l1.177.559,1.177.559c.527-1.287,2.828-6.592,5.483-7.994" transform="translate(6.995 9.45)" fill="#bad8d3"/>
        <path id="Path_67813" data-name="Path 67813" d="M95.5,299.1c-.679,1.43-3.4,1.558-6.077.287s-4.3-3.461-3.618-4.891,3.4-1.558,6.077-.287,4.3,3.461,3.618,4.891" transform="translate(7.075 9.154)" fill="#bad8d3"/>
        <path id="Path_67814" data-name="Path 67814" d="M65.676,342.84l2.553,1.213,2.552,1.213c-.591-2.945,2.067-8.08,2.733-9.3l-1.177-.559-1.177-.559c-.527,1.287-2.828,6.593-5.483,7.994" transform="translate(5.425 12.584)" fill="#bad8d3"/>
        <path id="Path_67815" data-name="Path 67815" d="M62.856,342.813c.679-1.43,3.4-1.558,6.077-.287s4.3,3.461,3.618,4.891-3.4,1.558-6.077.287-4.3-3.461-3.618-4.891" transform="translate(5.179 13.146)" fill="#bad8d3"/>
        <path id="Path_67816" data-name="Path 67816" d="M100.945,334.409l1.213-2.553,1.213-2.552c-2.945.591-8.08-2.067-9.3-2.733l-.559,1.177-.559,1.177c1.287.527,6.593,2.827,7.994,5.483" transform="translate(7.678 11.9)" fill="#bad8d3"/>
        <path id="Path_67817" data-name="Path 67817" d="M100.918,337.395c-1.43-.679-1.558-3.4-.287-6.077s3.461-4.3,4.891-3.618,1.558,3.4.287,6.077-3.461,4.3-4.891,3.618" transform="translate(8.241 11.981)" fill="#bad8d3"/>
        <path id="Path_67818" data-name="Path 67818" d="M57.442,307.571l-1.213,2.553-1.213,2.553c2.945-.592,8.08,2.066,9.3,2.731l.559-1.177.559-1.177c-1.287-.527-6.592-2.828-7.994-5.483" transform="translate(4.545 10.331)" fill="#bad8d3"/>
        <path id="Path_67819" data-name="Path 67819" d="M57.2,304.751c1.429.679,1.557,3.4.287,6.077s-3.462,4.3-4.892,3.618-1.558-3.4-.287-6.077,3.461-4.3,4.892-3.618" transform="translate(4.249 10.085)" fill="#bad8d3"/>
        <path id="Path_67820" data-name="Path 67820" d="M104.1,315.144l-.947-2.662-.948-2.662c-1.663,2.5-7.173,4.251-8.508,4.645l.437,1.228.436,1.227c1.283-.538,6.661-2.663,9.53-1.775" transform="translate(7.74 10.516)" fill="#bad8d3"/>
        <path id="Path_67821" data-name="Path 67821" d="M106.041,317.169c-1.491.531-3.506-1.3-4.5-4.094s-.591-5.486.9-6.016,3.507,1.3,4.5,4.094.59,5.486-.9,6.016" transform="translate(8.343 10.281)" fill="#bad8d3"/>
        <path id="Path_67822" data-name="Path 67822" d="M54.288,326.779l.947,2.662.948,2.662c1.663-2.5,7.173-4.251,8.508-4.646l-.436-1.228L63.818,325c-1.283.538-6.661,2.662-9.53,1.776" transform="translate(4.484 11.771)" fill="#bad8d3"/>
        <path id="Path_67823" data-name="Path 67823" d="M52.046,325c1.491-.53,3.506,1.3,4.5,4.094s.591,5.486-.9,6.017-3.507-1.3-4.5-4.094-.59-5.487.9-6.017" transform="translate(4.18 11.763)" fill="#bad8d3"/>
        <path id="Path_67824" data-name="Path 67824" d="M84.884,345.993l2.662-.947,2.662-.948c-2.5-1.663-4.251-7.173-4.645-8.508l-1.228.437-1.227.436c.538,1.283,2.663,6.661,1.775,9.53" transform="translate(6.865 12.645)" fill="#bad8d3"/>
        <path id="Path_67825" data-name="Path 67825" d="M83.1,347.936c-.53-1.492,1.3-3.505,4.094-4.5s5.486-.591,6.017.9-1.3,3.507-4.094,4.5-5.487.59-6.017-.9" transform="translate(6.857 13.249)" fill="#bad8d3"/>
        <path id="Path_67826" data-name="Path 67826" d="M73.249,296.183l-2.662.947-2.662.948c2.5,1.663,4.251,7.173,4.645,8.508l1.228-.437,1.227-.436c-.538-1.284-2.663-6.661-1.775-9.53" transform="translate(5.611 9.39)" fill="#bad8d3"/>
        <path id="Path_67827" data-name="Path 67827" d="M75.275,293.941c.53,1.491-1.3,3.506-4.094,4.5s-5.486.591-6.017-.9,1.3-3.507,4.094-4.5,5.487-.59,6.017.9" transform="translate(5.375 9.085)" fill="#bad8d3"/>
        <path id="Path_67828" data-name="Path 67828" d="M77.585,307.038c-4-1.9-6.96,4.314-2.953,6.217s6.961-4.314,2.953-6.217" transform="translate(6.008 10.257)" fill="#a1cec5"/>
        <path id="Path_67829" data-name="Path 67829" d="M89.8,320.644c-4-1.9-6.96,4.315-2.953,6.219s6.961-4.314,2.953-6.219" transform="translate(7.017 11.381)" fill="#a1cec5"/>
        <path id="Path_67830" data-name="Path 67830" d="M76.474,321.7c-4-1.9-6.96,4.314-2.953,6.217s6.96-4.314,2.953-6.217" transform="translate(5.916 11.469)" fill="#a1cec5"/>
        <path id="Path_67831" data-name="Path 67831" d="M69.082,325.349a1.435,1.435,0,0,0-1.231,2.591,1.435,1.435,0,0,0,1.231-2.591" transform="translate(5.539 11.787)" fill="#a1cec5"/>
        <path id="Path_67832" data-name="Path 67832" d="M85.176,317.31a1.435,1.435,0,0,0-1.231,2.591,1.435,1.435,0,0,0,1.231-2.591" transform="translate(6.869 11.123)" fill="#a1cec5"/>
        <path id="Path_67833" data-name="Path 67833" d="M70.187,312a1.435,1.435,0,0,0-1.231,2.591A1.435,1.435,0,0,0,70.187,312" transform="translate(5.631 10.685)" fill="#a1cec5"/>
        <path id="Path_67834" data-name="Path 67834" d="M84.652,309.747a1.435,1.435,0,0,0-1.231,2.591,1.435,1.435,0,0,0,1.231-2.591" transform="translate(6.826 10.498)" fill="#a1cec5"/>
        <path id="Path_67835" data-name="Path 67835" d="M82.19,325.091a1.435,1.435,0,0,0-1.231,2.591,1.435,1.435,0,0,0,1.231-2.591" transform="translate(6.622 11.766)" fill="#a1cec5"/>
        <path id="Path_67836" data-name="Path 67836" d="M85.283,330.043c-2.334-1.109-4.06,2.517-1.722,3.627s4.06-2.516,1.722-3.627" transform="translate(6.811 12.17)" fill="#a1cec5"/>
        <path id="Path_67837" data-name="Path 67837" d="M90.229,313.251c-2.334-1.109-4.06,2.517-1.722,3.627s4.06-2.516,1.722-3.627" transform="translate(7.22 10.783)" fill="#a1cec5"/>
        <path id="Path_67838" data-name="Path 67838" d="M69.565,316.431c-2.334-1.109-4.06,2.517-1.722,3.627s4.06-2.516,1.722-3.627" transform="translate(5.512 11.045)" fill="#a1cec5"/>
        <path id="Path_67839" data-name="Path 67839" d="M79.884,314.186c-2.334-1.109-4.06,2.516-1.722,3.627s4.06-2.517,1.722-3.627" transform="translate(6.365 10.86)" fill="#a1cec5"/>
        <path id="Path_67840" data-name="Path 67840" d="M75.977,329.895c-2.334-1.109-4.06,2.517-1.722,3.627s4.06-2.516,1.722-3.627" transform="translate(6.042 12.158)" fill="#a1cec5"/>
        <path id="Path_67841" data-name="Path 67841" d="M94.173,379.438a56.5,56.5,0,0,1-5.662.851,55.495,55.495,0,1,1,5.662-.851M74.1,281.18a44.712,44.712,0,1,0,4.546-.681,45.453,45.453,0,0,0-4.546.681" transform="translate(2.264 7.17)" fill="#bacddd"/>
        <rect id="Rectangle_9204" data-name="Rectangle 9204" width="10.966" height="99.185" transform="matrix(0.659, -0.752, 0.752, 0.659, 42.796, 302.065)" fill="#baddd7"/>
        <path id="Path_67842" data-name="Path 67842" d="M379.842,232.792a1.959,1.959,0,0,0,.122-3.1,2.087,2.087,0,0,0-2.285.163,2.639,2.639,0,0,0-.92,1.095,13.092,13.092,0,0,1-.82,1.628c-.879,1.412-1.685,2.806-1.685,2.806s1.454-.655,2.941-1.385a7.916,7.916,0,0,1,1.551-.613,2.535,2.535,0,0,0,1.094-.592" transform="translate(30.918 3.874)" fill="#a1cec5"/>
        <path id="Path_67843" data-name="Path 67843" d="M352.034,253a1.959,1.959,0,0,0-.122,3.1,2.085,2.085,0,0,0,2.285-.163,2.637,2.637,0,0,0,.92-1.093,13.02,13.02,0,0,1,.82-1.628c.879-1.413,1.685-2.806,1.685-2.806s-1.454.655-2.941,1.385a7.913,7.913,0,0,1-1.551.613,2.544,2.544,0,0,0-1.095.591" transform="translate(29.014 5.608)" fill="#a1cec5"/>
        <path id="Path_67844" data-name="Path 67844" d="M376.025,256.817a1.959,1.959,0,0,0,3.1.122,2.087,2.087,0,0,0-.163-2.285,2.639,2.639,0,0,0-1.094-.92,13.094,13.094,0,0,1-1.628-.82c-1.412-.879-2.806-1.685-2.806-1.685s.655,1.454,1.385,2.941a7.915,7.915,0,0,1,.613,1.551,2.535,2.535,0,0,0,.592,1.094" transform="translate(30.85 5.676)" fill="#a1cec5"/>
        <path id="Path_67845" data-name="Path 67845" d="M355.818,229.009a1.959,1.959,0,0,0-3.1-.122,2.085,2.085,0,0,0,.163,2.285,2.63,2.63,0,0,0,1.093.92,13.018,13.018,0,0,1,1.628.82c1.413.879,2.806,1.685,2.806,1.685s-.655-1.454-1.385-2.941a7.913,7.913,0,0,1-.613-1.551,2.544,2.544,0,0,0-.591-1.095" transform="translate(29.116 3.772)" fill="#a1cec5"/>
        <path id="Path_67846" data-name="Path 67846" d="M364.876,225.792c.07-1.38,1.164-2.413,2.328-2.056a2.088,2.088,0,0,1,1.318,1.875,2.639,2.639,0,0,1-.266,1.4,13.141,13.141,0,0,0-.744,1.664c-.539,1.574-1.111,3.079-1.111,3.079s-.41-1.542-.785-3.155a7.936,7.936,0,0,0-.506-1.589,2.555,2.555,0,0,1-.234-1.222" transform="translate(30.143 3.399)" fill="#a1cec5"/>
        <path id="Path_67847" data-name="Path 67847" d="M366.79,260.162c-.07,1.38-1.164,2.413-2.328,2.056a2.088,2.088,0,0,1-1.318-1.875,2.638,2.638,0,0,1,.266-1.4,13.148,13.148,0,0,0,.744-1.664c.539-1.574,1.111-3.079,1.111-3.079s.41,1.542.785,3.155a7.935,7.935,0,0,0,.506,1.589,2.556,2.556,0,0,1,.234,1.222" transform="translate(29.999 5.921)" fill="#a1cec5"/>
        <path id="Path_67848" data-name="Path 67848" d="M348.817,243.765c-1.38-.07-2.413-1.164-2.056-2.328a2.088,2.088,0,0,1,1.875-1.318,2.638,2.638,0,0,1,1.4.266,13.148,13.148,0,0,0,1.664.744c1.574.539,3.079,1.111,3.079,1.111s-1.542.41-3.155.785a7.935,7.935,0,0,0-1.589.506,2.556,2.556,0,0,1-1.222.234" transform="translate(28.641 4.758)" fill="#a1cec5"/>
        <path id="Path_67849" data-name="Path 67849" d="M383.187,241.851c1.38.07,2.413,1.164,2.056,2.328a2.088,2.088,0,0,1-1.875,1.318,2.639,2.639,0,0,1-1.4-.266,13.144,13.144,0,0,0-1.664-.744c-1.574-.539-3.079-1.111-3.079-1.111s1.542-.41,3.155-.785a7.937,7.937,0,0,0,1.589-.506,2.556,2.556,0,0,1,1.222-.234" transform="translate(31.163 4.901)" fill="#a1cec5"/>
        <path id="Path_67850" data-name="Path 67850" d="M380.119,250.11a14.726,14.726,0,1,1-6.984-19.619,14.725,14.725,0,0,1,6.984,19.619" transform="translate(29.086 3.845)" fill="#bad8d3"/>
        <path id="Path_67851" data-name="Path 67851" d="M376.291,226.172l-1.971-.936-1.973-.936c.458,2.275-1.6,6.241-2.11,7.185l.909.432.908.431c.408-.994,2.185-5.093,4.236-6.175" transform="translate(30.586 3.451)" fill="#bad8d3"/>
        <path id="Path_67852" data-name="Path 67852" d="M378.6,225.988c-.525,1.1-2.626,1.2-4.694.221s-3.319-2.673-2.8-3.778,2.626-1.2,4.7-.221,3.319,2.674,2.794,3.778" transform="translate(30.648 3.223)" fill="#bad8d3"/>
        <path id="Path_67853" data-name="Path 67853" d="M355.559,259.778l1.971.936,1.972.936c-.458-2.275,1.6-6.241,2.11-7.185l-.909-.432-.908-.431c-.407.994-2.185,5.093-4.236,6.175" transform="translate(29.373 5.872)" fill="#bad8d3"/>
        <path id="Path_67854" data-name="Path 67854" d="M353.38,259.757c.524-1.1,2.626-1.2,4.694-.221s3.318,2.673,2.8,3.778-2.628,1.2-4.7.221-3.32-2.674-2.794-3.778" transform="translate(29.183 6.306)" fill="#bad8d3"/>
        <path id="Path_67855" data-name="Path 67855" d="M382.8,253.265l.936-1.971.936-1.973c-2.275.458-6.241-1.6-7.185-2.11l-.432.909-.431.908c.994.408,5.093,2.185,6.175,4.236" transform="translate(31.114 5.344)" fill="#bad8d3"/>
        <path id="Path_67856" data-name="Path 67856" d="M382.782,255.573c-1.1-.525-1.2-2.626-.221-4.694s2.673-3.319,3.778-2.8,1.2,2.626.221,4.7-2.674,3.318-3.778,2.794" transform="translate(31.548 5.406)" fill="#bad8d3"/>
        <path id="Path_67857" data-name="Path 67857" d="M349.2,232.533l-.936,1.971-.936,1.973c2.275-.458,6.241,1.6,7.185,2.11l.432-.909.431-.908c-.994-.408-5.093-2.185-6.175-4.236" transform="translate(28.693 4.132)" fill="#bad8d3"/>
        <path id="Path_67858" data-name="Path 67858" d="M349.013,230.354c1.1.524,1.2,2.626.221,4.694s-2.673,3.319-3.778,2.794-1.2-2.625-.221-4.694,2.674-3.319,3.778-2.794" transform="translate(28.464 3.942)" fill="#bad8d3"/>
        <path id="Path_67859" data-name="Path 67859" d="M385.239,238.383l-.732-2.057-.732-2.056c-1.285,1.931-5.542,3.284-6.574,3.589l.338.947.338.948c.991-.416,5.146-2.057,7.362-1.372" transform="translate(31.161 4.275)" fill="#bad8d3"/>
        <path id="Path_67860" data-name="Path 67860" d="M386.74,239.948c-1.152.41-2.708-1.006-3.476-3.163s-.456-4.237.7-4.648,2.708,1.006,3.476,3.163.456,4.237-.7,4.648" transform="translate(31.627 4.093)" fill="#bad8d3"/>
        <path id="Path_67861" data-name="Path 67861" d="M346.762,247.372l.732,2.057.732,2.056c1.285-1.931,5.543-3.285,6.574-3.589l-.338-.947-.338-.948c-.991.416-5.146,2.057-7.362,1.372" transform="translate(28.646 5.244)" fill="#bad8d3"/>
        <path id="Path_67862" data-name="Path 67862" d="M345.029,246c1.152-.41,2.708,1.006,3.476,3.162s.456,4.238-.7,4.649-2.708-1.007-3.476-3.163-.456-4.237.7-4.648" transform="translate(28.411 5.238)" fill="#bad8d3"/>
        <path id="Path_67863" data-name="Path 67863" d="M370.4,262.213l2.057-.732,2.056-.732c-1.931-1.285-3.284-5.542-3.589-6.574l-.947.338-.948.338c.416.992,2.057,5.146,1.372,7.362" transform="translate(30.486 5.92)" fill="#bad8d3"/>
        <path id="Path_67864" data-name="Path 67864" d="M369.02,263.715c-.41-1.152,1.006-2.709,3.163-3.476s4.237-.456,4.648.7-1.006,2.708-3.163,3.476-4.237.456-4.648-.7" transform="translate(30.479 6.386)" fill="#bad8d3"/>
        <path id="Path_67865" data-name="Path 67865" d="M361.409,223.736l-2.057.732-2.056.733c1.931,1.284,3.284,5.541,3.589,6.573l.947-.338.948-.338c-.416-.991-2.057-5.146-1.372-7.362" transform="translate(29.517 3.405)" fill="#bad8d3"/>
        <path id="Path_67866" data-name="Path 67866" d="M362.973,222c.41,1.152-1.006,2.708-3.162,3.476s-4.238.456-4.649-.7,1.007-2.708,3.163-3.476,4.237-.456,4.648.7" transform="translate(29.335 3.169)" fill="#bad8d3"/>
        <path id="Path_67867" data-name="Path 67867" d="M364.758,232.122c-3.091-1.468-5.377,3.332-2.281,4.8s5.376-3.332,2.281-4.8" transform="translate(29.823 4.075)" fill="#a1cec5"/>
        <path id="Path_67868" data-name="Path 67868" d="M374.193,242.633c-3.091-1.468-5.376,3.332-2.281,4.8s5.376-3.332,2.281-4.8" transform="translate(30.603 4.943)" fill="#a1cec5"/>
        <path id="Path_67869" data-name="Path 67869" d="M363.9,243.45c-3.091-1.468-5.376,3.332-2.281,4.8s5.376-3.332,2.281-4.8" transform="translate(29.752 5.011)" fill="#a1cec5"/>
        <path id="Path_67870" data-name="Path 67870" d="M358.19,246.267a1.109,1.109,0,0,0-.951,2,1.109,1.109,0,0,0,.951-2" transform="translate(29.461 5.257)" fill="#a1cec5"/>
        <path id="Path_67871" data-name="Path 67871" d="M370.622,240.057a1.109,1.109,0,0,0-.951,2,1.109,1.109,0,0,0,.951-2" transform="translate(30.488 4.744)" fill="#a1cec5"/>
        <path id="Path_67872" data-name="Path 67872" d="M359.043,235.957a1.109,1.109,0,0,0-.951,2,1.109,1.109,0,0,0,.951-2" transform="translate(29.532 4.405)" fill="#a1cec5"/>
        <path id="Path_67873" data-name="Path 67873" d="M370.217,234.214a1.108,1.108,0,0,0-.951,2,1.108,1.108,0,0,0,.951-2" transform="translate(30.455 4.261)" fill="#a1cec5"/>
        <path id="Path_67874" data-name="Path 67874" d="M368.315,246.068a1.108,1.108,0,0,0-.951,2,1.108,1.108,0,0,0,.951-2" transform="translate(30.298 5.24)" fill="#a1cec5"/>
        <path id="Path_67875" data-name="Path 67875" d="M370.705,249.892a1.552,1.552,0,0,0-1.331,2.8,1.552,1.552,0,0,0,1.331-2.8" transform="translate(30.444 5.552)" fill="#a1cec5"/>
        <path id="Path_67876" data-name="Path 67876" d="M374.526,236.921a1.552,1.552,0,0,0-1.331,2.8,1.552,1.552,0,0,0,1.331-2.8" transform="translate(30.759 4.481)" fill="#a1cec5"/>
        <path id="Path_67877" data-name="Path 67877" d="M358.563,239.377a1.552,1.552,0,0,0-1.331,2.8,1.552,1.552,0,0,0,1.331-2.8" transform="translate(29.441 4.684)" fill="#a1cec5"/>
        <path id="Path_67878" data-name="Path 67878" d="M366.534,237.643a1.552,1.552,0,0,0-1.331,2.8,1.552,1.552,0,0,0,1.331-2.8" transform="translate(30.099 4.54)" fill="#a1cec5"/>
        <path id="Path_67879" data-name="Path 67879" d="M363.516,249.778a1.552,1.552,0,0,0-1.331,2.8,1.552,1.552,0,0,0,1.331-2.8" transform="translate(29.85 5.543)" fill="#a1cec5"/>
        <path id="Path_67880" data-name="Path 67880" d="M377.573,288.05a43.9,43.9,0,0,1-4.374.657,42.863,42.863,0,1,1,4.374-.657m-15.505-75.9a34.539,34.539,0,1,0,3.512-.526,35.187,35.187,0,0,0-3.512.526" transform="translate(26.931 1.69)" fill="#baddd7"/>
        <rect id="Rectangle_9205" data-name="Rectangle 9205" width="8.472" height="76.62" transform="matrix(0.659, -0.752, 0.752, 0.659, 363.066, 224.431)" fill="#baddd7"/>
        <path id="Path_67881" data-name="Path 67881" d="M264.774,149.793l12.464,4.939-2.589,6.56L269.3,174.838l-1.229,3.151s-.8-.311-2.167-.857c-7.3-2.984-30.651-12.783-31.216-16.975a2.55,2.55,0,0,1,.009-.658v-.087c1.032-8.269,28.709-46.261,33.968-53.418.161-.227.306-.427.423-.582.146-.2.291-.4.437-.582l10.763,10.291-2.705,6.8Z" transform="translate(19.386 -6.418)" fill="#f3a080"/>
        <path id="Path_67882" data-name="Path 67882" d="M272.92,160.576s-17.473-9.607-17.229-10.969c.261-1.345,19.2-36.2,19.2-36.2l3.651,1.459-15.515,34.215,12.473,4.945Z" transform="translate(21.123 -5.71)" fill="#ea7c6f"/>
        <path id="Path_67883" data-name="Path 67883" d="M269.3,174.838l-1.228,3.151s-.8-.311-2.168-.857c-7.342-2.97-30.866-12.758-31.215-16.975a3.291,3.291,0,0,1,.008-.658v-.087c1.033-8.269,28.709-46.261,33.969-53.419.131-.2.277-.4.422-.581.146-.2.291-.4.437-.582,0,0-30.3,53.119-28.851,55.487,1.756,2.887,20.042,10.878,28.624,14.522" transform="translate(19.386 -6.418)" fill="#f8bf92"/>
        <path id="Path_67884" data-name="Path 67884" d="M307.708,164.734,275.374,147.9,261.368,180s38.333,14.458,40.119,14.835Z" transform="translate(21.592 -2.86)" fill="#407bff"/>
        <path id="Path_67885" data-name="Path 67885" d="M380.341,213.013s21.774,27.6,26.719,26.8c7.016-1.131,32.133-37.064,35.925-42.566.318-.449.486-.7.486-.7l-3.084-3.083-4.972-4.962-.881-.914-1.483-1.471-.011.022-1.157,1.017a1.645,1.645,0,0,1-.152.141l-.46.406L408.29,208.022l-8.338-10.511-5.523,4.366L383,210.919Z" transform="translate(31.421 0.297)" fill="#f3a080"/>
        <path id="Path_67886" data-name="Path 67886" d="M455.963,154.673c-1.393-1.012-21.869,17.615-21.869,17.615a19.608,19.608,0,0,0-2.841-12.633l-.068-.1a1.127,1.127,0,0,0-.91-.616,1.045,1.045,0,0,0-.5.21,5.5,5.5,0,0,0-2.06,4.067,41.91,41.91,0,0,0,.113,4.692c.058,3-1.018,5.848-2.089,8.65-1.8,4.743,3.591,12.172,3.591,12.172s-.447.585-1.046,1.392l10.5,9.262,4.031-4.644,3.815-.9c2.639-1.006,20.4-20.7,19.466-22.212a11.39,11.39,0,0,0-.883-1.225c-.5-.612-1.011-1.152-1.353-1.51-.258-.261-.423-.412-.423-.412a17.46,17.46,0,0,0-.624-2.033,9.878,9.878,0,0,0-.849-1.86,1.966,1.966,0,0,0-1.231-1.074c-.454-.056-1.926.755-3.791,1.931-4.612,2.894-11.632,7.953-11.648,7.311-.013-.894,12.225-15.571,12.225-15.571a3.713,3.713,0,0,0-.457-1.283,3.856,3.856,0,0,0-1.093-1.228" transform="translate(35.14 -2.304)" fill="#f3a080"/>
        <path id="Path_67887" data-name="Path 67887" d="M435.818,186.636a12.413,12.413,0,0,0,3.192-5.671,11.19,11.19,0,0,0-.565-7.216c1.388.861,2.367,2.962,2.51,5.012a9.187,9.187,0,0,1-1.413,5.543c-.968,1.48-2.328,1.721-3.723,2.331" transform="translate(36.004 -0.725)" fill="#b54b57"/>
        <path id="Path_67888" data-name="Path 67888" d="M459.988,162.835c-.453-.056-1.926.756-3.791,1.931.112,1.59.709,3.313.71,4.789a15.127,15.127,0,0,1-1.549,6.675c-1.683,3.377-4.569,6.006-7.615,8.232s-6.314,4.165-9.175,6.618a39.056,39.056,0,0,0-4.262,4.328l4.169,3.764,3.6-5.113,3.815-.9c2.639-1,20.4-20.7,19.465-22.212a11.241,11.241,0,0,0-.883-1.225c-.5-.612-1.011-1.152-1.353-1.51-.258-.261-.423-.412-.423-.412a17.217,17.217,0,0,0-.624-2.033,9.807,9.807,0,0,0-.849-1.86,1.966,1.966,0,0,0-1.231-1.074" transform="translate(35.879 -1.627)" fill="#f8bf92"/>
        <path id="Path_67889" data-name="Path 67889" d="M460.735,165.686c-.365.337-.743.676-1.135,1.007a42.578,42.578,0,0,1-6.287,4.407c-1.605.917-2.7,1.413-2.828,1.468.094-.1.907-.984,2.213-2.275,1.4-1.381,3.338-3.236,5.586-5.145.542-.46,1.078-.9,1.6-1.322a9.986,9.986,0,0,1,.852,1.859" transform="translate(37.215 -1.544)" fill="#b54b57"/>
        <path id="Path_67890" data-name="Path 67890" d="M462.712,169.314a45.034,45.034,0,0,1-7.2,5.192,45.033,45.033,0,0,1,5.852-6.7c.341.358.851.9,1.346,1.511" transform="translate(37.631 -1.216)" fill="#b54b57"/>
        <path id="Path_67891" data-name="Path 67891" d="M430.808,192.029c.047-.064.112-.134.158-.2a10.781,10.781,0,0,0,.737-1.063,3.477,3.477,0,0,0,.345-.982,4.492,4.492,0,0,0-.682-2.694c-1.36-2.742-3.005-5.466-3.273-8.523-.313-3.605,1.354-7.08,1.714-10.686.259-2.618-.136-5.387.934-7.788.129-.286.287-.573.438-.876-.222-.316-.525-.643-.905-.615a1.219,1.219,0,0,0-.5.217,5.445,5.445,0,0,0-2.054,4.072,41.777,41.777,0,0,0,.107,4.686c.056,3.01-1.014,5.849-2.08,8.648-1.809,4.749,3.574,12.18,3.574,12.18s-.514.5-1.157,1.027c-.048.035-.1.081-.153.128l-.468.409Z" transform="translate(35.141 -1.976)" fill="#ea7c6f"/>
        <path id="Path_67892" data-name="Path 67892" d="M393.353,201.756s14.247,13.952,15.48,13.324c1.211-.639,24.625-25.452,24.625-25.452l-3.263-2.05L407.215,207.9l-8.338-10.511Z" transform="translate(32.495 0.418)" fill="#ea7c6f"/>
        <path id="Path_67893" data-name="Path 67893" d="M380.341,212.45s21.774,27.6,26.719,26.8c7.016-1.131,32.133-37.064,35.925-42.566h-.055l-4.177-3.765s-29.265,41.77-33.572,40.646c-3.273-.839-16.206-16.04-22.185-23.208Z" transform="translate(31.421 0.859)" fill="#f8bf92"/>
        <path id="Path_67894" data-name="Path 67894" d="M385.527,145.354s-17.568,9.385-33.15,14.569c-6.46,2.157-12.582,3.586-16.978,3.317-11.742-.7-35.207-15.276-44.845-21.57-2.687-1.752-4.291-2.861-4.291-2.861s17.728-24.816,18.465-26.569c.429-1.026,3.677-4.224,6.287-6.686,1.856-1.754,3.378-3.14,3.378-3.14l11.227-5.251,2.723-1.271,1.732.122,34.173,2.539c.028.057.056.115.084.187Z" transform="translate(23.648 -7.157)" fill="#38102b"/>
        <path id="Path_67895" data-name="Path 67895" d="M403.748,467.807a144.218,144.218,0,0,1-15.954,1.653c-30.128,1.852-80.654.747-80.654.747s1.073-40.825.574-46.92-10.82-93.631-10.106-105.085c.515-8.176,4.461-24.979,6.678-33.922.889-3.572,1.49-5.886,1.49-5.886l74.129.907s6.545,21.359,7.448,26.027-1.15,93.957-1.15,93.957,15.853,31.245,15.437,34.822c-.432,3.577,2.109,33.7,2.109,33.7" transform="translate(24.583 7.92)" fill="#f4e7d6"/>
        <path id="Path_67896" data-name="Path 67896" d="M387.281,469.46c1.071-9.086,3.334-30.05,1.917-34.9-1.844-6.241-12.3-30.9-12.3-30.9s2.73-88.507,1.154-94.315-10.484-20.232-10.484-20.232l-63.792-4.835c.889-3.572,1.49-5.886,1.49-5.886l74.129.907s6.545,21.359,7.448,26.027-1.15,93.957-1.15,93.957,15.853,31.245,15.437,34.822c-.432,3.577,2.109,33.7,2.109,33.7a144.218,144.218,0,0,1-15.954,1.653" transform="translate(25.095 7.92)" fill="#ddccb6"/>
        <path id="Path_67897" data-name="Path 67897" d="M309.286,236.425c.612-4.32,1-7.009,1-7.009s-.986-1.459-2.225-3.28c-1.351-1.965-2.985-4.335-4.027-5.781-.367-.492-.648-.881-.832-1.1a27.151,27.151,0,0,1-4.887-9.23,33.682,33.682,0,0,1-1.234-5.761,46.172,46.172,0,0,1,0-10.26c1.011-9.989,4.647-20.2,7.7-28.664a234.337,234.337,0,0,0,27.241-2.375,3.256,3.256,0,0,0,2.246-.975,3.14,3.14,0,0,0,.26-2.448,57.584,57.584,0,0,0-3.505-12.122q7.134-3.373,14.254-6.761a78.614,78.614,0,0,0,6.4,18.3q4.867-.693,9.747-1.371c.04.258,4.8,19.9,8.07,37.3.47,2.471.9,4.912,1.287,7.223.133.789.267,1.58.387,2.341.319,1.981.666,4.15,1.038,6.475.521,3.159,1.095,6.605,1.694,10.28.306,1.866.613,3.776.933,5.743.533,3.3,1.078,6.748,1.622,10.293,2.733,17.888,5.463,38.34,6.347,56.292l-81.356-3.976c2.161-13.787,6.026-40.464,7.844-53.137" transform="translate(24.519 -3.458)" fill="#3362cb"/>
        <path id="Path_67898" data-name="Path 67898" d="M357.195,157.984c-2.091,6.881-9.469,26.68-25.432,25.567-14.416-1.021-20.106-12.655-22.041-18.5,2.122-.131,4.647-.287,7.228-.5,7.5-.552,15.565-1.443,16.325-2.637.438-.682.314-2.275-.078-4.17a83.453,83.453,0,0,0-3.226-10.328l14.226-6.761s1.095,4.169,2.447,8.541c1.378,4.445,3.012,9.093,4.022,9.679a.078.078,0,0,0,.056.044Z" transform="translate(25.586 -3.458)" fill="#f3a080"/>
        <path id="Path_67899" data-name="Path 67899" d="M345.1,149.2c-3.726,3.494-8.319,7.65-9.89,8.39a4.835,4.835,0,0,1-3.556.157,83.409,83.409,0,0,0-3.226-10.327l14.226-6.762s1.1,4.169,2.447,8.542" transform="translate(27.132 -3.458)" fill="#ea7c6f"/>
        <path id="Path_67900" data-name="Path 67900" d="M353.685,107.227C347.081,96.713,334,91.795,322.4,96.241c-2.665,1.022-4.871,2.314-6.027,3.936-4.627,6.491-13.742,31.632-10.344,44.95s12.13,12.953,15.282,12.554,18.251-4.058,22.257-8.156,14.807-26.82,14.229-33.278c-.194-2.157-1.913-5.509-4.117-9.019" transform="translate(25.22 -7.263)" fill="#f8bf92"/>
        <path id="Path_67901" data-name="Path 67901" d="M354.851,105.641c-6.6-10.514-19.687-15.433-31.28-10.986-2.665,1.022-4.871,2.314-6.027,3.936-4.627,6.491-13.742,31.632-10.344,44.95s12.13,12.953,15.282,12.554,18.251-4.058,22.256-8.155,14.808-26.821,14.229-33.28c-.193-2.157-1.912-5.509-4.116-9.019" transform="translate(25.317 -7.394)" fill="#f3a080"/>
        <path id="Path_67902" data-name="Path 67902" d="M318.976,122.61a5.441,5.441,0,0,0-8.265-3.6,11.285,11.285,0,0,1,8.265,3.6" transform="translate(25.668 -5.316)" fill="#2a2b2b"/>
        <path id="Path_67903" data-name="Path 67903" d="M313.286,138.106s10.574-5.074,20.3.466c0,0-4.746,8.353-10,8.094-6.381-.316-10.3-8.559-10.3-8.559" transform="translate(25.881 -3.845)" fill="#dd5b67"/>
        <path id="Path_67904" data-name="Path 67904" d="M332.937,138.593a11.844,11.844,0,0,1-2.071,3,9.522,9.522,0,0,1-7.806,3.229,10.708,10.708,0,0,1-4.085-1.082,10.981,10.981,0,0,1-4.434-4.124,8.33,8.33,0,0,1-.715-1.371s7.23-1.874,19.068.349c0-.015.014,0,.014,0h.028" transform="translate(25.926 -3.719)" fill="#38102b"/>
        <path id="Path_67905" data-name="Path 67905" d="M332.894,138.593a14.854,14.854,0,0,1-4,2.144c-1.349.17-10.117.048-12.393-.152a3.81,3.81,0,0,1-1.965-.97,8.352,8.352,0,0,1-.715-1.37s7.231-1.875,19.068.348" transform="translate(25.926 -3.719)" fill="#fef1e8"/>
        <path id="Path_67906" data-name="Path 67906" d="M321.685,130.875a4.46,4.46,0,0,1,1.966.183,6.368,6.368,0,0,1-4.4,1.951.936.936,0,0,1-.376-.045.948.948,0,0,1-.351-.3,7.5,7.5,0,0,1-1.388-2.579,1.438,1.438,0,0,1-.086-.587c.077-.655.444-.371.75-.1a5.935,5.935,0,0,0,3.882,1.476" transform="translate(26.192 -4.413)" fill="#ea7c6f"/>
        <path id="Path_67907" data-name="Path 67907" d="M319.3,133.459c-.248-.462-.561-.891-.821-1.35a10.108,10.108,0,0,1-.8-1.771c2.453-.637,3.177-2.69,3.929-5.044a7.158,7.158,0,0,0-.235-4.985,7.515,7.515,0,0,0-.4-.8,2.632,2.632,0,0,0-.541-.624c.07.183.094.372.15.554A13.686,13.686,0,0,1,321,120.86a8.615,8.615,0,0,1,.171,1.49,8.761,8.761,0,0,1-.415,2.96,7.241,7.241,0,0,1-1.431,2.555,5.7,5.7,0,0,1-2.884,1.814c-.01,0,.77,2.048.856,2.224a7.4,7.4,0,0,0,.789,1.281,2.614,2.614,0,0,0,1.13,1,.838.838,0,0,0,.472.029,1.616,1.616,0,0,1-.161-.27c-.021-.041-.039-.083-.057-.126-.053-.123-.11-.245-.174-.363" transform="translate(26.142 -5.257)" fill="#dd5b67"/>
        <path id="Path_67908" data-name="Path 67908" d="M344.073,133.813c.813-.239,5.429-4.615,7.611-1.143s2.082,8.6-.9,11.009c-2.722,2.194-6.38,4.445-10.132,2.812Z" transform="translate(28.142 -4.229)" fill="#f3a080"/>
        <path id="Path_67909" data-name="Path 67909" d="M350.777,136.23a3.862,3.862,0,0,1-.5,2c-1.361,2.649-4.358,4.333-7.217,5.882a7.506,7.506,0,0,0,1.639-4.232c.036-.529.02-1.064.105-1.586.343-2.1,5.7-6.169,5.968-2.059" transform="translate(28.341 -3.97)" fill="#ea7c6f"/>
        <path id="Path_67910" data-name="Path 67910" d="M341.77,144.693l.158-.062c.1-.042.261-.1.449-.187a5.893,5.893,0,0,0,1.447-.979,5.615,5.615,0,0,0,1.405-2.047,4.993,4.993,0,0,0,.191-3,2.6,2.6,0,0,0-.12-.4l-.035-.1c-.009-.025,0-.01,0-.01h0s0,0,.01-.014l.055-.074.112-.144c.077-.1.152-.191.23-.281a12.82,12.82,0,0,1,.958-1.023c.326-.312.656-.594.979-.849a7.586,7.586,0,0,1,.931-.651,1.739,1.739,0,0,1,.881-.241,1.236,1.236,0,0,1,.672.241.686.686,0,0,1,.257.351.346.346,0,0,1,.016.148.316.316,0,0,0,.022-.15.668.668,0,0,0-.193-.425,1.384,1.384,0,0,0-.749-.4,2.149,2.149,0,0,0-1.136.142,7.14,7.14,0,0,0-1.109.578,11,11,0,0,0-1.133.8,10.2,10.2,0,0,0-1.1,1.025c-.088.094-.172.193-.258.292l-.126.15-.169.214-.118.152c.014.06.039.12.058.181l.087.26a2.306,2.306,0,0,1,.1.346,5.262,5.262,0,0,1-.042,2.671,5.9,5.9,0,0,1-1.032,2.009,6.226,6.226,0,0,1-1.172,1.127c-.159.119-.3.2-.386.258l-.136.09" transform="translate(28.234 -3.978)" fill="#b54b57"/>
        <path id="Path_67911" data-name="Path 67911" d="M311.543,111.445s4.2-2.273,6.491-1.674,2.65,2.852,1.664,3.128-8.155-1.454-8.155-1.454" transform="translate(25.737 -6.018)" fill="#4a0f2f"/>
        <path id="Path_67912" data-name="Path 67912" d="M342.393,120.143s-4.612-5.6-8.118-6.87-5.2.624-3.98,1.689,12.1,5.181,12.1,5.181" transform="translate(27.253 -5.756)" fill="#4a0f2f"/>
        <path id="Path_67913" data-name="Path 67913" d="M338.808,121.161a5.046,5.046,0,0,1-2.87,1.6,2.13,2.13,0,0,0-1.4-1.117c-1.482-.3-3.072,1.389-3.552,3.77s.333,4.552,1.817,4.85,3.072-1.389,3.552-3.77a6.577,6.577,0,0,0,.091-2.1c1.332-.768,2.358-3.233,2.358-3.233" transform="translate(27.332 -5.069)" fill="#2a2b2b"/>
        <path id="Path_67914" data-name="Path 67914" d="M333.247,126.08a5.635,5.635,0,0,0,6.5-.482,5.635,5.635,0,0,0-6.5.482" transform="translate(27.53 -4.769)" fill="#fef1e8"/>
        <path id="Path_67915" data-name="Path 67915" d="M330.211,133.577c-.032,1.132,2.366,2.121,5.357,2.206s5.442-.763,5.475-1.9-2.366-2.12-5.357-2.206-5.442.763-5.475,1.9" transform="translate(27.279 -4.201)" fill="#ea7c6f"/>
        <path id="Path_67916" data-name="Path 67916" d="M304.7,123.944c-.485.708.851,2.466,2.984,3.928s4.255,2.072,4.74,1.364-.85-2.466-2.984-3.928-4.255-2.072-4.74-1.364" transform="translate(25.164 -4.864)" fill="#ea7c6f"/>
        <path id="Path_67917" data-name="Path 67917" d="M407.441,197.4l-27.835,24.868-5.9-5.505-19.025-17.721,1.95-42.707s6.752-.949,8.166.1c1.023.752,22.59,21.565,34.655,33.233,4.725,4.563,7.988,7.733,7.988,7.733" transform="translate(29.301 -2.196)" fill="#407bff"/>
        <path id="Path_67918" data-name="Path 67918" d="M355.181,142.417c-.449.49-5.542,4.639-7.081,4.785-1.643.173-3.31.231-3.31.231-1.029,2.5-1.955,2.617-3.462,2.975-1.84.437-27.658,5.983-30.315,5.587-.995-.148-2.065-2.133-3.045-4.718-.153-.384-.286-.795-.434-1.207-.672-1.939-1.273-4.077-1.732-5.957-.068-.289-.126-.562-.182-.835a27.242,27.242,0,0,1-.721-3.954c-.044-.731-.041-1.595-.025-2.455.006-.319.012-.64.016-.945.08-1.856.209-3.467.209-3.467s10.105-2.829,14.556-2.682,24.414,3.636,24.414,3.636A7.807,7.807,0,0,1,354,131.751s-6.149-3.349-9.383,4.237c-3.249,7.6,3.121,8.323,3.121,8.323s6.212-.838,7.442-1.895" transform="translate(25.185 -4.358)" fill="#fff"/>
        <path id="Path_67919" data-name="Path 67919" d="M338.669,137.547c-2.788-.554-5.5-1.543-8.313-2.088a53.774,53.774,0,0,0-8.517-.919,59.341,59.341,0,0,0-16.967,2.029c.006-.319.012-.639.016-.944a57.4,57.4,0,0,1,16.437-2.22,64.638,64.638,0,0,1,9.223.76,31.88,31.88,0,0,1,8.487,2.141c.652.306.378,1.394-.366,1.242" transform="translate(25.186 -4.058)" fill="#e0e0e0"/>
        <path id="Path_67920" data-name="Path 67920" d="M336.545,141.968a6.492,6.492,0,0,1-3.255.06c-1.414-.141-2.84-.3-4.26-.4a81.329,81.329,0,0,0-9.031-.077c-2.847.119-5.7.4-8.555.648a42.161,42.161,0,0,0-5.7,1.046c-.068-.288-.126-.562-.182-.836,1.91-.383,3.843-.64,5.782-1.033a57.863,57.863,0,0,1,8.818-1.013c2.821-.137,5.636-.137,8.436-.04,1.44.061,2.865.134,4.3.25,1.25.116,2.7.081,3.725.9a.289.289,0,0,1-.074.489" transform="translate(25.243 -3.492)" fill="#e0e0e0"/>
        <path id="Path_67921" data-name="Path 67921" d="M335.082,147.164c-5.187.5-10.415.512-15.607,1.034-2.488.243-4.982.526-7.466.922-1.413.222-2.828.554-4.246.817-.152-.385-.286-.8-.433-1.207,1.326-.207,2.685-.353,3.993-.521,2.674-.368,5.352-.763,8.032-1.075a101.822,101.822,0,0,1,15.741-1.1c.652.027.608,1.065-.014,1.126" transform="translate(25.389 -3.017)" fill="#e0e0e0"/>
        <path id="Path_67922" data-name="Path 67922" d="M364.234,116.536c-.244,1.157-2.711,6.085-5.1,10.742-2.436,4.684-4.8,9.083-4.8,9.083l-5.252-2.421.8-11.06a31.055,31.055,0,0,0-18.454-10.685,14.188,14.188,0,0,1-4.683-10.8l-16.022,10.751s-.483-1.554-1-3.552c-.176-.719-.368-1.48-.545-2.27-.5-2.242-.862-4.524-.577-5.61.979-3.842,8.335-10.143,16.328-13.412s28.048,6.5,28.048,6.5,8.383,3.527,9.433,5.517c.028.058.056.116.084.188,1.03,2.477,2.227,14.757,1.74,17.029" transform="translate(25.486 -7.922)" fill="#38102b"/>
        <path id="Path_67923" data-name="Path 67923" d="M385.527,146.12s-2.264,1.219-5.883,3.009a232.1,232.1,0,0,1-27.267,11.56l18.07-11.758-7.31-17.385s-.909-1.832-2.17-4.269C358.6,122.706,355,116,353.836,115.225c-1.764-1.168-14.591-6.727-16.443-7.638-1.411-.7-5.509-7.648-7.32-10.808-.547-.953-.883-1.559-.883-1.559l-3.572,2.708L311.56,108.59l-21.006,33.846c-.668-.423-1.264-.817-1.777-1.168-1.606-1.065-2.515-1.693-2.515-1.693S303.991,114.759,304.728,113c.429-1.026,3.677-4.224,6.287-6.686-.5-2.241-.862-4.524-.576-5.609.978-3.843,8.334-10.144,16.328-13.414s28.048,6.5,28.048,6.5,8.382,3.527,9.432,5.518c.028.057.056.115.084.187Z" transform="translate(23.648 -7.922)" fill="#4a0f2f"/>
        <path id="Path_67924" data-name="Path 67924" d="M304.728,111.5c-.738,1.754-18.466,26.569-18.466,26.569s.909.628,2.516,1.693h.014l22.223-34.949c-2.61,2.461-5.859,5.66-6.287,6.686" transform="translate(23.648 -6.419)" fill="#38102b"/>
        <path id="Path_67925" data-name="Path 67925" d="M362.493,99.506c-.028-.071-.056-.13-.083-.187-1.051-1.99-9.433-5.518-9.433-5.518s-20.056-9.774-28.048-6.5-15.35,9.57-16.328,13.414c-.286,1.085.074,3.368.576,5.609,0,0,4.4-7.067,5.622-7.41s13.686-8.33,13.686-8.33,9.968,10.926,12.172,11.139,14.35,1.809,14.886,2.532c.422.564,15.72,31.6,22.263,44.879,3.619-1.79,5.883-3.009,5.883-3.009Z" transform="translate(25.485 -7.922)" fill="#5f1234"/>
        <path id="Path_67926" data-name="Path 67926" d="M302.358,169.115a131.557,131.557,0,0,0-5.7,20.9c-.168.9,1.208,1.3,1.377.4a131.475,131.475,0,0,1,5.7-20.9c.316-.868-1.063-1.26-1.377-.4" transform="translate(24.506 -1.148)" fill="#286654"/>
        <path id="Path_67927" data-name="Path 67927" d="M360.364,166.772c-.288-.87-1.677-.515-1.387.364a128.612,128.612,0,0,1,6.492,40.32.717.717,0,0,0,1.433.017,129.912,129.912,0,0,0-6.539-40.7" transform="translate(29.652 -1.343)" fill="#286654"/>
        <path id="Path_67928" data-name="Path 67928" d="M293.853,67.719c1.614.6-2.561,27.964-2.561,27.964a19.612,19.612,0,0,1,12.094-4.629h.122a1.131,1.131,0,0,1,1.018.418,1.064,1.064,0,0,1,.1.535,5.5,5.5,0,0,1-2.246,3.967,42.077,42.077,0,0,1-3.97,2.5c-2.531,1.613-4.307,4.086-6.046,6.528-2.952,4.127-12.124,3.749-12.124,3.749s-2.236,8.959-2.577,9.9l-10.82-10.641.928-7.164-1.364-3.674c-.625-2.754,5.945-28.445,7.719-28.507a11.353,11.353,0,0,1,1.51.056c.785.078,1.518.2,2.006.291.361.069.578.124.578.124a17.229,17.229,0,0,1,2.038-.607,9.813,9.813,0,0,1,2.019-.322,1.966,1.966,0,0,1,1.576.43c.3.345.437,2.021.49,4.227.144,5.442-.183,14.089.362,13.747.751-.484,6.2-18.8,6.2-18.8a3.714,3.714,0,0,1,1.322-.33,3.882,3.882,0,0,1,1.627.232" transform="translate(22.005 -9.504)" fill="#f3a080"/>
        <path id="Path_67929" data-name="Path 67929" d="M275.85,100.425a12.422,12.422,0,0,1,2.954-5.8,11.192,11.192,0,0,1,6.322-3.524c-1.485-.68-3.777-.331-5.564.685a9.173,9.173,0,0,0-3.833,4.245c-.7,1.626-.145,2.892.12,4.391" transform="translate(22.75 -7.581)" fill="#b54b57"/>
        <path id="Path_67930" data-name="Path 67930" d="M279.235,68.479c-.078.49-.152.993-.21,1.5a42.587,42.587,0,0,0-.189,7.676c.125,1.845.317,3.028.342,3.168.035-.135.317-1.3.67-3.1.378-1.927.847-4.572,1.191-7.5.082-.707.152-1.4.217-2.062a9.938,9.938,0,0,0-2.02.319" transform="translate(23.027 -9.448)" fill="#b54b57"/>
        <path id="Path_67931" data-name="Path 67931" d="M274.963,68.638a44.967,44.967,0,0,0-.339,8.869,45.12,45.12,0,0,0,2.343-8.584c-.487-.087-1.222-.21-2-.285" transform="translate(22.68 -9.408)" fill="#b54b57"/>
        <path id="Path_67932" data-name="Path 67932" d="M273.43,115.4c.028-.075,2.437-7.836,2.464-7.911a10.352,10.352,0,0,1,.477-1.2,3.433,3.433,0,0,1,.627-.831,4.478,4.478,0,0,1,2.621-.923c3.036-.386,6.215-.524,8.909-1.994,3.175-1.735,5.147-5.048,7.95-7.343,2.036-1.665,4.562-2.869,5.97-5.09.167-.266.317-.555.486-.851a1.134,1.134,0,0,1,1.012.414,1.215,1.215,0,0,1,.1.538,5.454,5.454,0,0,1-2.254,3.966,41.965,41.965,0,0,1-3.962,2.5c-2.538,1.62-4.309,4.084-6.049,6.521-2.954,4.136-12.122,3.767-12.122,3.767s-.133.706-.214,1.533c0,.058-.013.128-.024.2l-2.487,8.376Z" transform="translate(22.588 -7.705)" fill="#ea7c6f"/>
        <path id="Path_67933" data-name="Path 67933" d="M54.008,541.228l8.557.995,35.508,4.151s23.3-103.857,24.456-110.973c.645-3.98,2.836-35.134,4.653-61.816.526-7.744,1.01-15.112,1.42-21.32.71-10.652,1.176-17.93,1.176-17.93l-8.686.4-37.658,1.752.677,92.144Z" transform="translate(4.461 12.542)" fill="#bcacb8"/>
        <path id="Path_67934" data-name="Path 67934" d="M115.952,334.658s.013.061.024.167c.185,1.14,1.262,7.946,2.766,17.533.98,6.2,2.127,13.566,3.323,21.313,4.231,27.359,9.07,59.527,8.877,62.315-.333,4.926-14.315,116.135-14.315,116.135l43.607,1.609s10.82-105.328,11.573-110.588c.568-3.966-3.989-64.642-6.272-94.073-.72-9.527-1.215-15.783-1.215-15.783l-36.061,1.025Z" transform="translate(9.579 12.455)" fill="#bcacb8"/>
        <path id="Path_67935" data-name="Path 67935" d="M54.008,541.314l8.557.995L88.922,434.246l1.059-83.924a325.9,325.9,0,0,0,33.878,2.035c1.6.014,3.186.012,4.743-.007a283.208,283.208,0,0,0,42.05-3.281c-.721-9.527-1.215-15.783-1.215-15.783l-48.368,1.372s.012.061.023.168l-37.658,1.752.677,92.144Z" transform="translate(4.461 12.455)" fill="#a897a5"/>
        <path id="Path_67936" data-name="Path 67936" d="M120.582,362.052,138.594,434,122.443,549.961l-5.868-.217s13.982-111.209,14.315-116.136c.194-2.787-4.647-34.956-8.877-62.315-.363-2.349-1.431-9.241-1.431-9.241" transform="translate(9.63 14.831)" fill="#a897a5"/>
        <path id="Path_67937" data-name="Path 67937" d="M44.014,49c1.669-.223,10.618,25.322,10.618,25.322a19.161,19.161,0,0,1,8.319-9.545l.105-.056a1.106,1.106,0,0,1,1.071-.106,1.028,1.028,0,0,1,.332.414,5.375,5.375,0,0,1-.119,4.457,41,41,0,0,1-2.279,3.983c-1.446,2.555-1.845,5.5-2.226,8.412-.656,4.917-8.75,8.8-8.75,8.8s.114.71.252,1.685L38,95.449,36.7,89.581l-2.865-2.547c-1.8-2.092-7.916-27.289-6.413-28.158a11.128,11.128,0,0,1,1.331-.643c.713-.293,1.405-.521,1.866-.67.342-.105.555-.158.555-.158a16.944,16.944,0,0,1,1.482-1.458,9.584,9.584,0,0,1,1.595-1.2,1.926,1.926,0,0,1,1.559-.352c.416.162,1.3,1.546,2.362,3.425,2.621,4.634,6.306,12.25,6.619,11.7.427-.762-3.274-19.079-3.274-19.079a3.631,3.631,0,0,1,.99-.891A3.774,3.774,0,0,1,44.014,49" transform="translate(2.245 -11.031)" fill="#f3a080"/>
        <path id="Path_67938" data-name="Path 67938" d="M35.8,53.984c.416.162,1.3,1.545,2.362,3.424-.835,1.316-2.15,2.519-2.838,3.789a14.771,14.771,0,0,0-1.771,6.462,23.334,23.334,0,0,0,2.721,10.623c1.58,3.332,3.495,6.518,4.814,9.959a38.284,38.284,0,0,1,1.653,5.705l-5.336,1.3-.716-6.07L33.83,86.628c-1.8-2.093-7.916-27.289-6.412-28.158a10.877,10.877,0,0,1,1.329-.644c.713-.293,1.405-.521,1.866-.669.342-.105.555-.158.555-.158a16.945,16.945,0,0,1,1.482-1.458,9.532,9.532,0,0,1,1.6-1.2,1.919,1.919,0,0,1,1.558-.352" transform="translate(2.245 -10.624)" fill="#ea7c6f"/>
        <path id="Path_67939" data-name="Path 67939" d="M32.232,55.506c.158.459.324.927.508,1.393A41.611,41.611,0,0,0,36.1,63.613c.955,1.536,1.663,2.469,1.75,2.579-.032-.133-.323-1.269-.844-2.986-.559-1.837-1.366-4.336-2.413-7.023-.253-.648-.509-1.275-.759-1.88a9.8,9.8,0,0,0-1.6,1.2" transform="translate(2.662 -10.593)" fill="#b54b57"/>
        <path id="Path_67940" data-name="Path 67940" d="M28.631,57.581a43.986,43.986,0,0,0,3.776,7.813,44.07,44.07,0,0,0-1.916-8.487c-.459.148-1.151.379-1.86.673" transform="translate(2.365 -10.377)" fill="#b54b57"/>
        <path id="Path_67941" data-name="Path 67941" d="M46.541,91.931c-.011-.077-.034-.167-.043-.244a10.093,10.093,0,0,1-.14-1.258,3.371,3.371,0,0,1,.159-1,4.382,4.382,0,0,1,1.839-2c2.445-1.727,5.127-3.3,6.778-5.809,1.947-2.956,2.128-6.721,3.5-9.989.995-2.371,2.623-4.57,2.819-7.133.022-.305.019-.626.029-.958a1.112,1.112,0,0,1,1.064-.107,1.172,1.172,0,0,1,.332.42,5.331,5.331,0,0,1-.127,4.457,41,41,0,0,1-2.272,3.981c-1.449,2.563-1.847,5.5-2.232,8.405-.653,4.926-8.738,8.815-8.738,8.815s.209.671.517,1.423c.024.051.048.116.071.181l.212.569Z" transform="translate(3.829 -9.847)" fill="#f8bf92"/>
        <path id="Path_67942" data-name="Path 67942" d="M41.44,85.867l-.142-.519a7.053,7.053,0,0,1-.2-1.468,8.691,8.691,0,0,1,4.784-8.114,7.211,7.211,0,0,1,1.381-.534l.523-.127s-.136.141-.375.383-.574.592-.956,1.03a25.74,25.74,0,0,0-4.421,7.5c-.2.546-.353,1.009-.438,1.335l-.154.513" transform="translate(3.394 -8.874)" fill="#b54b57"/>
        <path id="Path_67943" data-name="Path 67943" d="M196.406,56.683c-1.663-.264-11.234,25.055-11.234,25.055a19.175,19.175,0,0,0-8.083-9.747l-.1-.058a1.1,1.1,0,0,0-1.067-.132,1.018,1.018,0,0,0-.343.406,5.372,5.372,0,0,0,.011,4.458,41,41,0,0,0,2.18,4.037c1.383,2.59,1.709,5.547,2.019,8.464.536,4.932,8.532,9.012,8.532,9.012s-.131.707-.293,1.677l13.256,3.409,1.451-5.835,2.925-2.476c1.853-2.048,8.582-27.088,7.1-27.993a11.168,11.168,0,0,0-1.314-.676c-.706-.311-1.391-.554-1.849-.715-.34-.114-.552-.172-.552-.172A16.937,16.937,0,0,0,207.6,63.9a9.582,9.582,0,0,0-1.565-1.244,1.927,1.927,0,0,0-1.549-.39c-.419.152-1.342,1.513-2.446,3.366-2.734,4.569-6.6,12.092-6.9,11.54-.408-.773,3.74-18.993,3.74-18.993a3.655,3.655,0,0,0-.968-.915,3.794,3.794,0,0,0-1.5-.584" transform="translate(14.464 -10.396)" fill="#f3a080"/>
        <path id="Path_67944" data-name="Path 67944" d="M202.842,61.847c-.419.152-1.342,1.512-2.446,3.366.8,1.336,2.088,2.571,2.744,3.857a14.8,14.8,0,0,1,1.613,6.5,23.342,23.342,0,0,1-2.98,10.553c-1.661,3.292-3.653,6.431-5.056,9.838a38.115,38.115,0,0,0-1.793,5.664l5.3,1.428.864-6.051,2.925-2.476c1.853-2.048,8.582-27.088,7.1-27.993a11.09,11.09,0,0,0-1.314-.676c-.706-.311-1.391-.555-1.849-.716-.34-.113-.552-.171-.552-.171a16.765,16.765,0,0,0-1.445-1.494,9.582,9.582,0,0,0-1.565-1.244,1.923,1.923,0,0,0-1.549-.39" transform="translate(16.103 -9.974)" fill="#ea7c6f"/>
        <path id="Path_67945" data-name="Path 67945" d="M205.566,63.444c-.169.456-.346.918-.541,1.38a41.613,41.613,0,0,1-3.521,6.63c-.992,1.512-1.724,2.428-1.812,2.535.036-.132.353-1.26.917-2.964.6-1.823,1.472-4.3,2.584-6.961.27-.642.54-1.262.805-1.862a9.7,9.7,0,0,1,1.568,1.242" transform="translate(16.497 -9.94)" fill="#b54b57"/>
        <path id="Path_67946" data-name="Path 67946" d="M208.968,65.607A43.878,43.878,0,0,1,205,73.326a44.111,44.111,0,0,1,2.123-8.437c.457.159,1.142.407,1.844.718" transform="translate(16.935 -9.718)" fill="#b54b57"/>
        <path id="Path_67947" data-name="Path 67947" d="M191.216,99.534c.012-.077.037-.167.05-.243a10.236,10.236,0,0,0,.17-1.254,3.347,3.347,0,0,0-.135-1.009,4.382,4.382,0,0,0-1.79-2.044c-2.4-1.785-5.045-3.429-6.633-5.973-1.874-3-1.964-6.771-3.251-10.072-.936-2.4-2.511-4.634-2.643-7.2-.015-.306,0-.626-.007-.958a1.112,1.112,0,0,0-1.062-.133,1.181,1.181,0,0,0-.342.41,5.326,5.326,0,0,0,.018,4.459,40.687,40.687,0,0,0,2.174,4.036c1.385,2.6,1.712,5.546,2.026,8.456.533,4.941,8.52,9.027,8.52,9.027s-.225.665-.552,1.408c-.026.052-.051.115-.076.18l-.226.564Z" transform="translate(14.464 -9.25)" fill="#f8bf92"/>
        <path id="Path_67948" data-name="Path 67948" d="M195.678,93.581l.155-.515a7.087,7.087,0,0,0,.237-1.462,8.686,8.686,0,0,0-4.584-8.229,7.123,7.123,0,0,0-1.367-.567l-.52-.141.365.393c.238.238.56.606.93,1.052a25.68,25.68,0,0,1,4.237,7.606c.184.55.328,1.018.406,1.346s.141.516.141.516" transform="translate(15.663 -8.249)" fill="#b54b57"/>
        <path id="Path_67949" data-name="Path 67949" d="M75.844,345.019s-7.126,11.707,1.471,15.711,54.39,5.2,54.39,5.2,39.63-4.5,41.279-9.6a6.113,6.113,0,0,0,.266-2.054c-.07-3.543-2.52-7.75-3.954-9.926-.576-5.86-1.311-13.246-2.175-21.509-3.172-30.2-8.133-72.023-13.217-93.39-1.267-5.373-2.538-9.438-3.792-11.7-4.023-4.354-8.172-8.746-13.225-11.83-.643-.389-1.311-.765-1.992-1.116a74.517,74.517,0,0,0-24.339-7.243c-.584-.071-1.128-.116-1.611-.172-1.965-.176-3.12-.2-3.12-.2l-6.888,2.556c-1.226.607-2.44,1.253-3.578,1.887-.025.012-.064.037-.09.049-2.044,1.143-3.785,2.2-4.578,2.751-6.069,4.179-10.158,13.625-12.86,25.882a177.483,177.483,0,0,0-3.1,20.721c-.728,7.583-1.156,15.615-1.358,23.725-.64,26.362,1.1,53.693,2.467,70.266" transform="translate(6.036 1.211)" fill="#7aa3ff"/>
        <path id="Path_67950" data-name="Path 67950" d="M29.385,93.19s8.633,75.8,11.663,83.468,37.113,83.933,37.113,83.933l.182-.366,7.013-13.919,15.8-31.319s-.818-1.559-2.183-4.165c-5.843-11.194-21.772-41.708-26.694-51.354L59.921,85.857,34.466,91.969Z" transform="translate(2.427 -7.986)" fill="#b2caff"/>
        <path id="Path_67951" data-name="Path 67951" d="M132.023,214.555l31.311-46.98,19.182-74.964,31.247,9.256L193.7,185.016,151.39,272.169Z" transform="translate(10.906 -7.428)" fill="#b2caff"/>
        <path id="Path_67952" data-name="Path 67952" d="M78.16,260.124l.183-.366c-.729,7.584-1.157,15.616-1.358,23.725-.64,26.363,1.095,53.693,2.467,70.266,0,0-7.127,11.708,1.47,15.71s54.392,5.2,54.392,5.2,39.629-4.5,41.279-9.6A6.113,6.113,0,0,0,176.86,363c-20.472-1.647-77.395-6.419-81.667-9.063-5.2-3.211-4.328-98.613-4.328-98.613s-2.139-3.67-5.509-9.488c-1.168-2.033-2.486-4.309-3.916-6.8C68.2,216,45.57,175.918,44.308,169.109c-1.5-8.132-7.885-61.191-9.842-77.606l-5.082,1.22s8.634,75.8,11.663,83.469S78.16,260.124,78.16,260.124" transform="translate(2.427 -7.519)" fill="#617ab1"/>
        <path id="Path_67953" data-name="Path 67953" d="M164.5,162.526c2.478.539,5.253.818,7.605,1.767a.628.628,0,0,1-.182,1.226,28,28,0,0,1-5.615-.348c.622,1.184,1.238,2.373,1.782,3.589a1.329,1.329,0,0,1-1.5,1.905l-.33-.058a1.107,1.107,0,0,1-.776-1.232c-.844-1.663-1.6-3.381-2.384-5.069a1.24,1.24,0,0,1,1.4-1.78" transform="translate(13.463 -1.655)" fill="#7aa3ff"/>
        <path id="Path_67954" data-name="Path 67954" d="M58.018,155.89c2.639,0,5.285.129,7.925.186a1.408,1.408,0,0,1,1.172,2.1c-1.132,2.456-2.167,5.325-3.844,7.462a1.057,1.057,0,0,1-1.912-.834,26.035,26.035,0,0,1,2.372-6.005c-1.917-.04-3.835-.074-5.747-.176a1.369,1.369,0,0,1,.034-2.737" transform="translate(4.682 -2.2)" fill="#7aa3ff"/>
        <path id="Path_67955" data-name="Path 67955" d="M148.174,141.262s2.141,6.564,2.095,10.35-10,20.926-10,20.926l1.969-28.113Z" transform="translate(11.587 -3.409)" fill="#1d1e1e"/>
        <line id="Line_2619" data-name="Line 2619" x1="11.946" y1="4.3" transform="translate(102.009 162.266)" fill="#feeaaf"/>
        <path id="Path_67956" data-name="Path 67956" d="M93.576,201.674a43.267,43.267,0,0,0,13.782,13.017,27.391,27.391,0,0,0,12.126,4.123,16.087,16.087,0,0,0,11.955-3.9,11.823,11.823,0,0,0,3.755-8.994c-.643-.389-1.311-.764-1.992-1.116-.468-.234-.921-.468-1.4-.69a75.385,75.385,0,0,0-22.937-6.553c-.584-.07-1.129-.115-1.611-.172-1.966-.176-3.121-.2-3.121-.2l-5.867,2.175-1.02.381c-1.252.619-2.5,1.29-3.668,1.936" transform="translate(7.73 1.211)" fill="#f3a080"/>
        <path id="Path_67957" data-name="Path 67957" d="M93.576,201.508a43.267,43.267,0,0,0,13.782,13.017,27.391,27.391,0,0,0,12.126,4.123,16.087,16.087,0,0,0,11.955-3.9,11.823,11.823,0,0,0,3.755-8.994c-.643-.389-1.311-.764-1.992-1.116-.468-.234-.921-.468-1.4-.69-1.154,4.074-4.16,11.681-9.829,11.662-12.756-.044-20.18-13.134-23.707-16.415l-1.02.381c-1.252.619-2.5,1.29-3.668,1.936" transform="translate(7.73 1.377)" fill="#fef1e8"/>
        <path id="Path_67958" data-name="Path 67958" d="M103.336,198.856c.476.488,21.454,16.412,21.454,16.412s-.369-9.656-.539-14.686c-.049-1.558-.083-2.672-.08-2.918.025-2.01,1.847-10.694,1.847-10.694L104.776,176.94s-.392,4.4-.778,9.261c-.468,5.861-.923,12.387-.661,12.656" transform="translate(8.53 -0.461)" fill="#f3a080"/>
        <path id="Path_67959" data-name="Path 67959" d="M103.941,186.2c5.881,4.381,18.837,13.969,20.139,14.357a1.094,1.094,0,0,0,.115.026c-.048-1.558-.082-2.672-.079-2.918.024-2.01,1.847-10.694,1.847-10.694L104.719,176.94s-.391,4.4-.778,9.261" transform="translate(8.586 -0.461)" fill="#ea7c6f"/>
        <path id="Path_67960" data-name="Path 67960" d="M101.98,181.157a10.165,10.165,0,0,0,2.875,3.69h.005a21.422,21.422,0,0,0,1.694,1.385c2.485,1.829,25.825,12.17,29.446,11.732s7.18-12.818,7.383-14.122c1.26-8,4.759-32.732,4.759-32.732-8.586-27.1-40.569-13.512-44.216-10.905s-1.948,40.952-1.948,40.952" transform="translate(8.392 -3.968)" fill="#f3a080"/>
        <path id="Path_67961" data-name="Path 67961" d="M104.612,181.081a21.157,21.157,0,0,0,1.693,1.385c2.485,1.829,25.826,12.171,29.447,11.732s7.179-12.818,7.382-14.122c-2.317,5.428-4.954,12.942-7.51,12.67-3.851-.409-28.183-10.131-31.013-11.665" transform="translate(8.642 -0.202)" fill="#f8bf92"/>
        <path id="Path_67962" data-name="Path 67962" d="M142.072,157.679s-3.268-6.438-6.034-4.595-1.739,2.267-1.739,2.267Z" transform="translate(11.079 -2.459)" fill="#444"/>
        <path id="Path_67963" data-name="Path 67963" d="M110.263,153.035s9.508-7.584,12.126-3.784c1.528,2.218-.01,3.252-.01,3.252Z" transform="translate(9.109 -2.837)" fill="#444"/>
        <path id="Path_67964" data-name="Path 67964" d="M114.577,162.058c-.03,2.493,1.2,4.531,2.756,4.549s2.836-1.987,2.867-4.48-1.2-4.531-2.756-4.55-2.836,1.988-2.867,4.481" transform="translate(9.465 -2.061)" fill="#2a2b2b"/>
        <path id="Path_67965" data-name="Path 67965" d="M112.125,159.366a5.785,5.785,0,0,0,6.175,2.587,5.785,5.785,0,0,0-6.175-2.587" transform="translate(9.262 -1.922)" fill="#fef1e8"/>
        <path id="Path_67966" data-name="Path 67966" d="M139.437,163.842c-.023,1.879-.991,3.392-2.161,3.378s-2.1-1.55-2.078-3.43.991-3.392,2.161-3.377,2.1,1.549,2.078,3.429" transform="translate(11.169 -1.826)" fill="#2a2b2b"/>
        <path id="Path_67967" data-name="Path 67967" d="M141.152,162.079a4.675,4.675,0,0,1-4.437,1.732,4.681,4.681,0,0,1,4.437-1.732" transform="translate(11.294 -1.693)" fill="#fef1e8"/>
        <path id="Path_67968" data-name="Path 67968" d="M137.068,173.473c.358.993,2.491,1.133,4.765.314s3.826-2.289,3.469-3.281-2.491-1.133-4.765-.314-3.827,2.289-3.469,3.281" transform="translate(11.319 -1.063)" fill="#ea7c6f"/>
        <path id="Path_67969" data-name="Path 67969" d="M110.822,168.714c-.4,1.485,2.026,3.441,5.428,4.366s6.488.473,6.893-1.013-2.027-3.441-5.428-4.366-6.488-.472-6.893,1.013" transform="translate(9.151 -1.264)" fill="#ea7c6f"/>
        <path id="Path_67970" data-name="Path 67970" d="M124.007,170.234a8.359,8.359,0,0,0,8.954.833,4.766,4.766,0,0,1-4.809,3.7,4.873,4.873,0,0,1-4.145-4.535" transform="translate(10.244 -1.015)" fill="#ea7c6f"/>
        <path id="Path_67971" data-name="Path 67971" d="M128.615,175.086a6.129,6.129,0,0,0,1.978-.7A2.735,2.735,0,0,0,132,172.747a1.609,1.609,0,0,0-.756-1.717,3,3,0,0,0-1.315-.514,3.222,3.222,0,0,0-.533-.041c-.008-.22,0-.459,0-.732a22.085,22.085,0,0,1,.6-4.351,21.517,21.517,0,0,1,2.373-5.912,41.25,41.25,0,0,1-1.011,6.234c-.354,1.519-.779,2.877-1.135,3.936a3.144,3.144,0,0,1,1.622.361,3.055,3.055,0,0,1,1.25,1.133,2.536,2.536,0,0,1,.267,1.908,3.536,3.536,0,0,1-2.259,2.415,5.232,5.232,0,0,1-2.48.315,4.79,4.79,0,0,1-1.58-.433c-.252-.125-.416-.225-.488-.267a5.942,5.942,0,0,0,2.057,0" transform="translate(10.455 -1.904)" fill="#dd5b67"/>
        <path id="Path_67972" data-name="Path 67972" d="M114.984,175.009s6.783-.09,16.149,5.184c0,0-4.7,6.124-10.441,3.887s-5.709-9.07-5.709-9.07" transform="translate(9.499 -0.621)" fill="#fef1e8"/>
        <path id="Path_67973" data-name="Path 67973" d="M106.051,180.115a14.726,14.726,0,0,1-10.165-5.772,11.771,11.771,0,0,1-1-1.531c-1.35-2.52-1.64-11.2,1.938-13.179,2.507-1.38,4.295.69,5.139,2.055v.005a8.242,8.242,0,0,1,.551,1.033Z" transform="translate(7.761 -1.929)" fill="#f8bf92"/>
        <path id="Path_67974" data-name="Path 67974" d="M106.007,180.052a14.726,14.726,0,0,1-10.165-5.772q-.239-.37-.418-.7c-1.349-2.52-1.639-11.2,1.939-13.176,2.03-1.121,3.589.025,4.557,1.227v.005a8.242,8.242,0,0,1,.551,1.033Z" transform="translate(7.806 -1.865)" fill="#f3a080"/>
        <path id="Path_67975" data-name="Path 67975" d="M95.5,166.072a3.734,3.734,0,0,0,.137,2.1c.935,2.924,3.817,5.184,6.577,7.281a7.31,7.31,0,0,1-.921-4.573,16.116,16.116,0,0,0,.2-1.619c.048-2.184-4.891-7.285-5.994-3.194" transform="translate(7.881 -1.486)" fill="#ea7c6f"/>
        <path id="Path_67976" data-name="Path 67976" d="M103.54,176.306l-.157-.092c-.1-.062-.262-.144-.446-.273a6.312,6.312,0,0,1-1.359-1.258,5.61,5.61,0,0,1-1.1-2.327,4.833,4.833,0,0,1,.389-3.056,2.834,2.834,0,0,1,.208-.38l.056-.092.005-.009h0l0,0h0s0,0-.008-.016l-.045-.084-.091-.167c-.064-.109-.126-.22-.191-.326a12.745,12.745,0,0,0-.825-1.21c-.288-.376-.587-.723-.882-1.039a7.942,7.942,0,0,0-.87-.83,1.959,1.959,0,0,0-.9-.409,1.436,1.436,0,0,0-.77.118.724.724,0,0,0-.344.305.524.524,0,0,0-.051.145.352.352,0,0,1,.01-.155.687.687,0,0,1,.292-.393,1.563,1.563,0,0,1,.883-.266,2.471,2.471,0,0,1,1.19.356,7.857,7.857,0,0,1,1.075.79,11.856,11.856,0,0,1,1.058,1.018,10.706,10.706,0,0,1,.975,1.24c.076.113.147.227.219.342l.105.176.139.248.1.174c-.026.057-.066.115-.1.172l-.144.245a2.31,2.31,0,0,0-.178.33,5.106,5.106,0,0,0-.484,2.7,5.782,5.782,0,0,0,.71,2.218,6.352,6.352,0,0,0,1.035,1.355c.146.152.28.254.363.332l.129.117" transform="translate(7.944 -1.49)" fill="#b54b57"/>
        <path id="Path_67977" data-name="Path 67977" d="M96.348,151.673c.105,5.931.281,11.24.281,11.24l6.475,3.076,4.1-17.877,6.451-5.292a85.192,85.192,0,0,0,18.148,5.834c5.724,1.2,13.827,1.984,19.161-.2,3.712-1.517,6.1-4.471,5.4-9.7a18.013,18.013,0,0,0-.71-3.183c-1.5-4.856-5.646-8.588-10.358-10.512s-9.913-2.241-14.983-1.935c-4.333.251-8.645.934-12.985.73s-8.806-1.416-11.931-4.425a62.671,62.671,0,0,0-1.818,7.43,18.325,18.325,0,0,0,.344,4.08c-3.023,1.067-6.956,2.9-7.377,5.267-.342,2-.315,9.1-.2,15.462" transform="translate(7.953 -5.212)" fill="#1d1e1e"/>
        <path id="Path_67978" data-name="Path 67978" d="M96.348,151.673a17.761,17.761,0,0,0,7.207-14.17q2.882.989,5.765,2c-.362-1.528-.724-3.068-1.086-4.6a48.447,48.447,0,0,0,37.922,8.476c3.7-.742,7.528-2.1,10.213-4.624a18.013,18.013,0,0,0-.71-3.183,15.271,15.271,0,0,0-4.185-6.551,19.923,19.923,0,0,0-6.173-3.961c-4.7-1.924-9.913-2.241-14.983-1.935-4.333.251-8.645.934-12.985.73s-8.806-1.416-11.931-4.425a62.671,62.671,0,0,0-1.818,7.43,18.325,18.325,0,0,0,.344,4.08c-3.023,1.067-6.956,2.9-7.377,5.267-.069.393-.114.99-.161,1.738-.163,3.045-.131,8.619-.041,13.724" transform="translate(7.953 -5.212)" fill="#444"/>
        <path id="Path_67979" data-name="Path 67979" d="M96.379,137.949a30.837,30.837,0,0,0,6.983-4.18c.212.357.436.716.648,1.074,1.239-1.623,2.464-3.233,3.7-4.856a32.769,32.769,0,0,0,8.152,4.048,9.51,9.51,0,0,1-2.927-5.647,36.653,36.653,0,0,0,23.226,6.836,26.152,26.152,0,0,0,10.252-2.49,18.235,18.235,0,0,0,5.047-3.709,19.918,19.918,0,0,0-6.172-3.961c-4.7-1.924-9.915-2.241-14.984-1.935-4.333.251-8.645.934-12.984.73s-8.807-1.416-11.931-4.425a62.25,62.25,0,0,0-1.818,7.43,18.324,18.324,0,0,0,.343,4.08c-3.022,1.067-6.955,2.9-7.377,5.267-.068.393-.114.99-.161,1.738" transform="translate(7.962 -5.212)" fill="#595959"/>
        <path id="Path_67980" data-name="Path 67980" d="M97.61,175.771c.353.537,3.282,4.8,4.728,5.181a10.5,10.5,0,0,0,2.511.417s1.632,3.707,3.122,4.749,25.444,9.96,28.039,9.993c.971.012,2.3-1.716,3.63-4.028.2-.343.394-.713.6-1.084.94-1.746,1.842-3.692,2.568-5.412.109-.265.206-.516.3-.769a26.262,26.262,0,0,0,1.3-3.657c.155-.69.285-1.514.4-2.337.043-.305.087-.611.13-.9.209-1.781.333-3.337.333-3.337s-9.2-4.251-13.462-4.8-23.832-.292-23.832-.292-3.749-9.082-8.939-9.106a19.978,19.978,0,0,1,8.018,11.477c1.928,7.743-4.257,7.455-4.257,7.455s-4.177-2.354-5.187-3.551" transform="translate(8.063 -1.828)" fill="#fff"/>
        <path id="Path_67981" data-name="Path 67981" d="M111.352,173.625c2.742-.1,5.478-.625,8.246-.711a52.056,52.056,0,0,1,8.26.434,57.293,57.293,0,0,1,15.861,4.546c.043-.305.087-.611.13-.9a55.413,55.413,0,0,0-15.328-4.647,62.307,62.307,0,0,0-8.908-.694,30.784,30.784,0,0,0-8.421.735.633.633,0,0,0,.158,1.24" transform="translate(9.148 -0.899)" fill="#e0e0e0"/>
        <path id="Path_67982" data-name="Path 67982" d="M112.426,178.227a6.268,6.268,0,0,0,3.094.556c1.37.084,2.753.154,4.123.277a78.989,78.989,0,0,1,8.621,1.316c2.695.552,5.374,1.263,8.055,1.936a40.743,40.743,0,0,1,5.273,1.874c.11-.265.207-.516.3-.768-1.761-.66-3.565-1.2-5.354-1.876a55.875,55.875,0,0,0-8.248-2.323c-2.669-.565-5.351-1-8.036-1.336-1.381-.163-2.751-.313-4.133-.423-1.21-.081-2.591-.338-3.691.288a.28.28,0,0,0-.005.479" transform="translate(9.276 -0.428)" fill="#e0e0e0"/>
        <path id="Path_67983" data-name="Path 67983" d="M112.8,183.421c4.869,1.271,9.85,2.091,14.718,3.387,2.334.614,4.669,1.268,6.975,2.029,1.312.429,2.61.964,3.921,1.432.2-.344.4-.715.6-1.085-1.233-.4-2.506-.749-3.726-1.11-2.493-.762-4.985-1.551-7.492-2.262a98.382,98.382,0,0,0-14.836-3.469c-.626-.074-.744.922-.16,1.076" transform="translate(9.287 -0.015)" fill="#e0e0e0"/>
        <path id="Path_67984" data-name="Path 67984" d="M240.583,212.873c-.523.483-23.253,15.937-23.253,15.937s.909-10.043,1.361-15.277c.135-1.621.232-2.78.243-3.037.083-2.1-1.344-11.246-1.344-11.246l22.686-9.3s.169,4.609.307,9.695c.168,6.134.288,12.961,0,13.226" transform="translate(17.954 0.614)" fill="#f3a080"/>
        <path id="Path_67985" data-name="Path 67985" d="M240.564,199.646c-6.368,4.247-20.393,13.535-21.771,13.867a1.173,1.173,0,0,1-.121.021c.135-1.621.232-2.781.243-3.038.083-2.095-1.344-11.244-1.344-11.244l22.686-9.3s.169,4.607.307,9.693" transform="translate(17.974 0.614)" fill="#ea7c6f"/>
        <path id="Path_67986" data-name="Path 67986" d="M244.861,194.6a10.61,10.61,0,0,1-3.2,3.688h-.005a22.256,22.256,0,0,1-1.842,1.351c-2.689,1.77-27.578,11.278-31.329,10.625s-6.785-13.75-6.927-15.121c-.877-8.408-3.177-34.373-3.177-34.373,10.424-27.778,43.019-11.874,46.678-8.959s-.2,42.788-.2,42.788" transform="translate(16.388 -3.13)" fill="#f3a080"/>
        <path id="Path_67987" data-name="Path 67987" d="M253.853,163.889A10.48,10.48,0,0,1,255,168.254a12.49,12.49,0,0,1-1.948,7.389,6.852,6.852,0,0,0-5.719,6.312,29.334,29.334,0,0,1-3.192-20.113c-3.384-.738-6.012-4.106-5.3-7.506a5.9,5.9,0,0,1-10.533-2.174,7.324,7.324,0,0,1-5.743,4.73,8.135,8.135,0,0,1-7.3-2.932,6.778,6.778,0,0,1-11.377,5.2c-.922,3.049-2.366,6.063-4.871,8.019s-6.253,2.564-8.871.762a7.062,7.062,0,0,1-2.852-5.242,12.291,12.291,0,0,1,.7-5.46c.66-1.762,1.726-3.533,3.461-4.251a10.919,10.919,0,0,1,2.512-10.891,9.778,9.778,0,0,1,10.393-1.772c1.7-3,4.627-5.978,8.054-6.3a11.012,11.012,0,0,1,9.238,3.739,9.192,9.192,0,0,1,16.287,1.316,5.987,5.987,0,0,1,5.043-1.955,8.175,8.175,0,0,1,6.689,9.191,9.907,9.907,0,0,1,6.033,7.122c.7,3.373-.6,7.245-1.853,10.449" transform="translate(15.467 -4.056)" fill="#595959"/>
        <path id="Path_67988" data-name="Path 67988" d="M253.853,163.889A10.48,10.48,0,0,1,255,168.254c-1.725-.18-3.6.247-3.954,1.837a8.459,8.459,0,0,1-.9-11.787,7.86,7.86,0,0,1-6.021-9.357,8.187,8.187,0,0,1-13.287-4.658,11.131,11.131,0,0,1-17.97,2.318c-.628,2.734-1.664,5.622-4.019,7.159s-6.26.721-6.879-2.014a13.913,13.913,0,0,1-6.1,9.991,10.277,10.277,0,0,1-8.584.955,12.291,12.291,0,0,1,.7-5.46c.66-1.762,1.726-3.533,3.461-4.251a10.124,10.124,0,0,1-.4-4.878,10.331,10.331,0,0,1,2.917-6.013,9.778,9.778,0,0,1,10.393-1.772c1.7-3,4.627-5.978,8.054-6.3a11.012,11.012,0,0,1,9.238,3.739,9.192,9.192,0,0,1,16.287,1.316,5.987,5.987,0,0,1,5.043-1.955,8.175,8.175,0,0,1,6.689,9.191,9.907,9.907,0,0,1,6.033,7.122,5.843,5.843,0,0,1,.122.7c.4,3.211-.808,6.764-1.976,9.752" transform="translate(15.467 -4.056)" fill="#444"/>
        <path id="Path_67989" data-name="Path 67989" d="M255.537,154.137a8.251,8.251,0,0,0-6.459-.834c-.192-3.31-.945-6.872-3.428-9.078-2.5-2.22-7.126-2.1-8.569.881-1.284-2.917-3.6-5.6-6.695-6.42-3.08-.836-6.884.743-7.763,3.806a8.737,8.737,0,0,0-16.017,3.894c-4.791-3.192-11.75-2.217-15.845,1.721a10.328,10.328,0,0,1,2.917-6.013,9.777,9.777,0,0,1,10.392-1.773c1.705-3,4.628-5.977,8.055-6.3a11.011,11.011,0,0,1,9.238,3.738,9.193,9.193,0,0,1,16.287,1.316,5.986,5.986,0,0,1,5.042-1.954,8.174,8.174,0,0,1,6.691,9.19,9.911,9.911,0,0,1,6.033,7.124,5.768,5.768,0,0,1,.122.7" transform="translate(15.759 -4.056)" fill="#1d1e1e"/>
        <path id="Path_67990" data-name="Path 67990" d="M241.415,194.43a22.256,22.256,0,0,1-1.842,1.351c-2.689,1.771-27.578,11.279-31.329,10.625s-6.785-13.75-6.927-15.121c2.12,5.784,4.459,13.758,7.138,13.614,4.037-.217,29.926-9.025,32.959-10.469" transform="translate(16.631 0.724)" fill="#ea7c6f"/>
        <path id="Path_67991" data-name="Path 67991" d="M201.822,167.282s1.764-7.326,5.018-6.122,2.312,1.882,2.312,1.882Z" transform="translate(16.673 -1.776)" fill="#444"/>
        <path id="Path_67992" data-name="Path 67992" d="M234.55,161.874s-9.5-8.423-12.432-4.6c-1.714,2.229-.168,3.391-.168,3.391Z" transform="translate(18.283 -2.168)" fill="#444"/>
        <path id="Path_67993" data-name="Path 67993" d="M203.343,174.415c-.078,1.961.848,3.589,2.068,3.638s2.273-1.5,2.352-3.461-.848-3.589-2.068-3.638-2.275,1.5-2.353,3.461" transform="translate(16.798 -0.956)" fill="#1d1e1e"/>
        <path id="Path_67994" data-name="Path 67994" d="M201.654,172.493a4.88,4.88,0,0,0,4.53,2.047,4.887,4.887,0,0,0-4.53-2.047" transform="translate(16.659 -0.83)" fill="#fff"/>
        <path id="Path_67995" data-name="Path 67995" d="M228.6,171.239c.036,2.309-1.1,4.2-2.539,4.222s-2.633-1.833-2.669-4.142,1.1-4.2,2.539-4.221,2.633,1.832,2.669,4.141" transform="translate(18.455 -1.274)" fill="#1d1e1e"/>
        <path id="Path_67996" data-name="Path 67996" d="M230.653,169.02a5.75,5.75,0,0,1-5.39,2.279,5.753,5.753,0,0,1,5.39-2.279" transform="translate(18.609 -1.119)" fill="#fff"/>
        <path id="Path_67997" data-name="Path 67997" d="M205.6,184.6c-.428,1.015-2.658,1.046-4.982.067s-3.864-2.593-3.437-3.608,2.658-1.046,4.983-.068,3.864,2.594,3.436,3.609" transform="translate(16.284 -0.185)" fill="#ea7c6f"/>
        <path id="Path_67998" data-name="Path 67998" d="M236.732,179.174c.341,1.571-2.3,3.475-5.895,4.256s-6.788.139-7.129-1.432,2.3-3.475,5.9-4.255,6.788-.14,7.128,1.431" transform="translate(18.478 -0.422)" fill="#ea7c6f"/>
        <path id="Path_67999" data-name="Path 67999" d="M211.026,181.135a9.116,9.116,0,0,0,4.455,1.206,3.452,3.452,0,0,0,2.9-1.122,2.474,2.474,0,0,1-.844,2.758,4.165,4.165,0,0,1-2.895.731,4.929,4.929,0,0,1-2.736-1,2.967,2.967,0,0,1-.88-2.569" transform="translate(17.433 -0.115)" fill="#ea7c6f"/>
        <path id="Path_68000" data-name="Path 68000" d="M213.719,170.438a7.915,7.915,0,0,1-.353,10.108,4.922,4.922,0,0,0-1.423,2.037,2.572,2.572,0,0,0,1.863,2.725,7.505,7.505,0,0,0,3.576.015,8.342,8.342,0,0,1-3.329.565,4.47,4.47,0,0,1-3.042-1.4,3.05,3.05,0,0,1-.558-3.2,8.146,8.146,0,0,1,1.846-2.053c2.127-2.15,2.92-6.168,1.419-8.794" transform="translate(17.366 -0.998)" fill="#dd5b67"/>
        <path id="Path_68001" data-name="Path 68001" d="M237.952,193.2a15.363,15.363,0,0,0,10.908-5.463,12.308,12.308,0,0,0,1.125-1.542c1.544-2.553,2.319-11.588-1.3-13.84-2.538-1.576-4.513.484-5.468,1.862v0a8.627,8.627,0,0,0-.63,1.047Z" transform="translate(19.657 -0.886)" fill="#ea7c6f"/>
        <path id="Path_68002" data-name="Path 68002" d="M237.952,193.141a15.363,15.363,0,0,0,10.908-5.463q.27-.373.473-.712c1.544-2.553,2.32-11.588-1.3-13.838-2.055-1.279-3.742-.169-4.817,1.031v0a8.627,8.627,0,0,0-.63,1.047Z" transform="translate(19.657 -0.823)" fill="#f3a080"/>
        <path id="Path_68003" data-name="Path 68003" d="M249.251,179.13a3.891,3.891,0,0,1-.258,2.186c-1.134,3-4.261,5.194-7.251,7.231a7.639,7.639,0,0,0,1.209-4.717,16.883,16.883,0,0,1-.122-1.7c.069-2.279,5.5-7.326,6.422-3" transform="translate(19.97 -0.42)" fill="#ea7c6f"/>
        <path id="Path_68004" data-name="Path 68004" d="M240.363,189.357l.169-.087c.107-.06.28-.137.48-.261a6.573,6.573,0,0,0,1.484-1.237,5.858,5.858,0,0,0,1.275-2.364,5.045,5.045,0,0,0-.238-3.206,2.881,2.881,0,0,0-.2-.408l-.054-.1c-.013-.025-.005-.01-.008-.012v0l0,0h0l.01-.015.051-.086.105-.169c.071-.112.142-.223.215-.33a13.647,13.647,0,0,1,.926-1.217c.32-.376.651-.721.975-1.035a8.366,8.366,0,0,1,.954-.817,2.03,2.03,0,0,1,.956-.378,1.5,1.5,0,0,1,.8.165.75.75,0,0,1,.342.337.606.606,0,0,1,.045.155.373.373,0,0,0,0-.162.719.719,0,0,0-.283-.425,1.643,1.643,0,0,0-.906-.326,2.584,2.584,0,0,0-1.26.306,8.207,8.207,0,0,0-1.163.765,12.114,12.114,0,0,0-1.158,1,11.08,11.08,0,0,0-1.084,1.239c-.086.113-.166.228-.247.345l-.119.176-.158.251-.109.178c.024.061.062.122.092.184l.137.263a2.346,2.346,0,0,1,.168.354,5.326,5.326,0,0,1,.356,2.841,6.032,6.032,0,0,1-.861,2.273,6.7,6.7,0,0,1-1.152,1.357c-.161.148-.306.249-.4.326l-.141.115" transform="translate(19.857 -0.425)" fill="#b54b57"/>
        <path id="Path_68005" data-name="Path 68005" d="M251.276,188.593c-.4.576-3.7,5.148-5.29,5.519a11.518,11.518,0,0,1-2.747.388s-1.875,3.995-3.528,5.092S211.724,209.764,208.9,209.73c-1.059-.013-2.456-1.93-3.847-4.485-.213-.38-.411-.788-.624-1.2-.978-1.927-1.909-4.07-2.653-5.965-.113-.291-.211-.567-.309-.844a28.647,28.647,0,0,1-1.315-4.02c-.149-.756-.27-1.656-.375-2.557-.039-.333-.079-.668-.118-.987-.18-1.947-.275-3.644-.275-3.644s10.134-4.387,14.8-4.866,25.974.317,25.974.317,4.326-9.8,9.982-9.683a21.776,21.776,0,0,0-9.042,12.291c-2.307,8.384,4.439,8.234,4.439,8.234s4.614-2.452,5.746-3.73" transform="translate(16.471 -0.886)" fill="#1d1e1e"/>
        <path id="Path_68006" data-name="Path 68006" d="M235.132,185.9c-2.986-.182-5.951-.827-8.966-.995a56.56,56.56,0,0,0-9.011.253,62.423,62.423,0,0,0-17.4,4.53c-.039-.335-.078-.668-.118-.987a60.422,60.422,0,0,1,16.825-4.654,67.937,67.937,0,0,1,9.724-.519,33.584,33.584,0,0,1,9.155,1.025.69.69,0,0,1-.206,1.347" transform="translate(16.492 0.083)" fill="#1d1e1e"/>
        <path id="Path_68007" data-name="Path 68007" d="M233.55,190.874a6.824,6.824,0,0,1-3.386.524c-1.494.055-3,.094-4.5.192a85.928,85.928,0,0,0-9.428,1.2c-2.951.529-5.889,1.233-8.827,1.893a44.589,44.589,0,0,0-5.8,1.9c-.113-.291-.211-.567-.309-.844,1.937-.672,3.916-1.214,5.883-1.9a60.874,60.874,0,0,1,9.05-2.311c2.922-.543,5.857-.943,8.791-1.241,1.51-.142,3.005-.268,4.514-.351,1.321-.057,2.832-.3,4.013.411a.306.306,0,0,1-.007.522" transform="translate(16.63 0.606)" fill="#1d1e1e"/>
        <path id="Path_68008" data-name="Path 68008" d="M232.755,196.52c-5.338,1.255-10.787,2.015-16.126,3.3-2.56.606-5.122,1.257-7.654,2.023-1.442.432-2.87.98-4.311,1.456-.213-.38-.411-.788-.624-1.2,1.353-.4,2.75-.749,4.089-1.111,2.736-.763,5.473-1.557,8.222-2.263a107.172,107.172,0,0,1,16.258-3.384c.683-.064.785,1.025.145,1.177" transform="translate(16.856 1.059)" fill="#1d1e1e"/>
        <path id="Path_68009" data-name="Path 68009" d="M270.382,361.849l-44.176-1.767c1.315,23.9,3.043,67.08-1.071,75.913-.123.265-1.037,1.66-2.532,3.881l34.862,33.441s13.778-20.657,15.658-28.585c4.783-20.173-2.8-78.862-2.741-82.883" transform="translate(18.389 14.669)" fill="#385077"/>
        <path id="Path_68010" data-name="Path 68010" d="M187.443,360.8s34.964,97.734,43.5,120.821l7.8,96.836,37.349-6.214-.472-11.065-3.993-94.362L242.377,362.747l-43.7-1.544Z" transform="translate(15.485 14.728)" fill="#526995"/>
        <path id="Path_68011" data-name="Path 68011" d="M187.443,360.8s34.964,97.734,43.5,120.821l7.8,96.836,37.349-6.214-.472-11.065-29.22,1.836s-6.437-78.594-8.279-87.014c-1.681-7.674-33.778-98.7-39.448-114.794Z" transform="translate(15.485 14.728)" fill="#385077"/>
        <path id="Path_68012" data-name="Path 68012" d="M200.541,216.974s3.422-8.1,4.5-8.415,38.034-4.27,41.658-1.471,9.438,13.063,9.438,13.063-15.572,10.271-22.759,11.314-32.837-14.491-32.837-14.491" transform="translate(16.567 1.947)" fill="#ffce6c"/>
        <path id="Path_68013" data-name="Path 68013" d="M274.385,358.59c.264-24.72.577-66.936-.292-71.929-1.237-7.112-8.379-64.463-8.379-64.463l-7.8-2.878-55.6-3.175s-19.61,6.024-20.026,7.046-1.148,44.794-3.066,65.54c-1.316,14.247,3.378,48.551,6.449,68.643,0,0-7.69,16.852-4.364,18.371s57.033,7.537,62.607,7.276,36.4-1.093,36.958-6.813-6.495-17.618-6.495-17.618" transform="translate(14.787 2.778)" fill="#ffce6c"/>
        <path id="Path_68014" data-name="Path 68014" d="M257.289,346.214c-10.555-.47-20.984-1.151-31.391-3.111-8.869-1.672-17.426-5.172-26.292-6.524-1.269-.194-1.782,1.743-.738,2.347,8.342,4.834,19.116,6.589,28.506,8.277,4.275.769,8.6,1.385,12.94,1.827a415.246,415.246,0,0,1-47.017,3.18.459.459,0,0,0-.037.917c21.343,2.8,43.276.144,64.359-3.436,1.988-.338,1.622-3.39-.33-3.476" transform="translate(15.93 12.726)" fill="#feb451"/>
        <path id="Path_68015" data-name="Path 68015" d="M248.068,222.523c-2.026.585-4.026,1.082-6.015,1.515a.869.869,0,0,0,.038-.451,17.391,17.391,0,0,0-1.421-3.646l-1.682-3.9c-.316-.732-1.6-.268-1.326.5l1.419,4a17.5,17.5,0,0,0,1.433,3.642.951.951,0,0,0,.139.154c-2.026.4-4.038.738-6.04.974-.186-2.38-1.128-4.923-1.665-7.2a.817.817,0,0,0-1.59.371,53.974,53.974,0,0,0,1.591,6.99c-2.085.195-4.165.306-6.243.305-.152-2.774-.684-5.569-1.048-8.32-.133-1.013-1.9-.861-1.81.172.241,2.676.333,5.435.758,8.094-1.8-.061-3.6-.174-5.41-.394a13.094,13.094,0,0,0-.3-2.839q-.432-2.98-.8-5.965c-.073-.586-1.058-.494-1.039.1.062,2.01.092,4.019.121,6.029a19.516,19.516,0,0,0,.061,2.4c-1.923-.3-3.853-.674-5.8-1.162.253-2.959.183-5.992.27-8.948a.867.867,0,0,0-1.732-.069c-.141,2.813-.432,5.685-.447,8.518q-1.366-.383-2.742-.83c-1.224-.4-1.753,1.4-.6,1.879,13.456,5.6,29.212,5.955,42.477-.344a.854.854,0,0,0-.592-1.578" transform="translate(16.98 2.607)" fill="#feb451"/>
        <path id="Path_68016" data-name="Path 68016" d="M228.547,466.232c-4.478,7.864-67.02,4.343-67.3-.824s14.3-239.323,14.3-239.323c4.167-2.762,14.316-5.989,21.245-8.007,4.046-1.169,7-1.93,7-1.93s12.408,39.691,12.994,48.822c.145,2.395,1.333,16.784,2.928,36.891,4.47,56.652,12.144,158.553,8.838,164.372" transform="translate(13.32 2.778)" fill="#fff"/>
        <path id="Path_68017" data-name="Path 68017" d="M217.188,301.86c-8.855-12.553-19.347-27.4-20.8-29.408-2.582-3.527,5.15-17.793,5.15-17.793s-8.129-4.247-9.5-4.945c-1.066-.55,1.185-22.149,2.23-31.636,4.046-1.169,7-1.931,7-1.931s12.408,39.691,12.994,48.822c.144,2.4,1.332,16.784,2.928,36.892" transform="translate(15.841 2.778)" fill="#e0e0e0"/>
        <rect id="Rectangle_9206" data-name="Rectangle 9206" width="33.105" height="5.513" transform="translate(190.677 391.832) rotate(-10.751)" fill="#e0e0e0"/>
        <path id="Path_68018" data-name="Path 68018" d="M385.414,278.388c.469,2.053-26.834,17.532-30.173,17.69l-4.613-.418-5.114,3.763-7.288-11.064-2.2-3.319c.844-.612,1.506-1.051,1.659-1.162a.048.048,0,0,1,.031-.015s-.048-.14-.113-.4c-.079-.231-.16-.571-.258-.987a1.159,1.159,0,0,1-.064-.215c-.1-.417-.21-.9-.307-1.42a.917.917,0,0,1-.034-.217c-.065-.339-.131-.71-.2-1.1-.049-.31-.1-.633-.133-.958a18.813,18.813,0,0,1,.166-6.576v-.015a7.831,7.831,0,0,1,.572-1.662V270.3a6.24,6.24,0,0,1,.882-1.447c.565-.686,1.131-1.373,1.681-2.074s1.069-1.418,1.556-2.15a17.687,17.687,0,0,0,2.351-4.71c.209-.668.389-1.335.567-2.017.119-.434.238-.884.357-1.334.135-.45.286-.886.435-1.32.076-.218.167-.419.257-.637a6.039,6.039,0,0,1,.319-.638,7.457,7.457,0,0,1,1.22-1.714,6.072,6.072,0,0,1,1.659-1.223,4.664,4.664,0,0,1,.647-.238,2.053,2.053,0,0,1,.447-.066.646.646,0,0,1,.186.029,1.018,1.018,0,0,1,.3.135,1.692,1.692,0,0,1,.219.246,2.324,2.324,0,0,1,.285.631v.015c.016.047.017.093.033.14a23.164,23.164,0,0,1-1.518,15.237c.863-.365,29.97-13.233,31.132-11.6a4.278,4.278,0,0,1,.775,1.786,4.494,4.494,0,0,1,.033,1.624s-19.233,11.9-19.548,12.911c-.224.73,9.552-2.323,15.817-3.855,2.531-.629,4.492-.988,4.974-.746a2.266,2.266,0,0,1,.992,1.661,12.181,12.181,0,0,1,.255,2.411,18.218,18.218,0,0,1-.067,2.506s.142.231.331.631c.252.523.616,1.324.949,2.2a11.9,11.9,0,0,1,.543,1.7" transform="translate(27.76 5.635)" fill="#f3a080"/>
        <path id="Path_68019" data-name="Path 68019" d="M381.1,269.959c-.536.241-1.087.482-1.65.707a50.4,50.4,0,0,1-8.709,2.6c-2.147.43-3.559.579-3.726.592.145-.081,1.387-.766,3.336-1.729,2.085-1.03,4.958-2.387,8.2-3.69.782-.315,1.547-.608,2.29-.889a11.869,11.869,0,0,1,.262,2.407" transform="translate(30.32 7.025)" fill="#b54b57"/>
        <path id="Path_68020" data-name="Path 68020" d="M381.906,274.874a53.281,53.281,0,0,1-10.025,3.143,53.311,53.311,0,0,1,9.078-5.343c.25.529.619,1.331.947,2.2" transform="translate(30.722 7.448)" fill="#b54b57"/>
        <path id="Path_68021" data-name="Path 68021" d="M350.713,251.773c-.291.281-.567.547-.827.828-2.1,2.3-2.683,5.549-3.954,8.392-1.755,3.916-4.924,7.2-5.919,11.367-.847,3.536-.021,7.209.495,10.793a5.473,5.473,0,0,1-.246,3.281,3.911,3.911,0,0,1-.763.983,13.659,13.659,0,0,1-1.213.908.083.083,0,0,1-.062.033l-2.2-3.319c.844-.612,1.5-1.051,1.659-1.162a.047.047,0,0,1,.03-.015s-.048-.14-.111-.4c-.064-.232-.16-.571-.258-.987a1.146,1.146,0,0,1-.064-.217c-.1-.416-.195-.894-.309-1.419a.866.866,0,0,1-.032-.217c-.066-.34-.131-.71-.2-1.1-.05-.309-.1-.633-.133-.957a18.813,18.813,0,0,1,.166-6.576v-.016a10.017,10.017,0,0,1,.572-1.661V270.3a6.862,6.862,0,0,1,.9-1.447c.566-.686,1.131-1.373,1.665-2.074q.825-1.052,1.557-2.15a17.673,17.673,0,0,0,2.35-4.712c.21-.667.389-1.334.567-2.016.12-.434.239-.884.358-1.335.135-.449.285-.885.435-1.319.091-.218.182-.419.272-.637s.2-.42.3-.638a7.5,7.5,0,0,1,1.221-1.714,5.127,5.127,0,0,1,1.657-1.223,4.58,4.58,0,0,1,.647-.238,2.063,2.063,0,0,1,.448-.066.724.724,0,0,1,.186.013.684.684,0,0,1,.294.152.826.826,0,0,1,.22.246,2.31,2.31,0,0,1,.285.631" transform="translate(27.76 5.635)" fill="#ea7c6f"/>
        <path id="Path_68022" data-name="Path 68022" d="M349.974,287.062a13.013,13.013,0,0,0,2.973-14.948,6.433,6.433,0,0,0-2.408-2.867c3.5,1.774,6.162,5.367,6.12,9.292s-3.147,6.823-6.685,8.522" transform="translate(28.912 7.165)" fill="#b54b57"/>
        <path id="Path_68023" data-name="Path 68023" d="M354.739,305.017s-52.183,26.891-56.306,26.087c-2.157-.39-5.269-2.139-8.663-4.429-4.92-3.324-10.585-11.007-14.672-17.222-3.332-5.045-5.632-9.134-5.632-9.134l-10.195-52.326,6.2-26.569s7.662.906,13.14,6.093c8.269,8.209,27.152,68.809,27.152,68.809l29.255-13.016,5.8-2.583Z" transform="translate(21.419 3.214)" fill="#fff"/>
        <path id="Path_68024" data-name="Path 68024" d="M288.772,456.01c-2.448,3.291-19,3.539-19,3.539s-19.458-155.886-19.642-159.8c-.012-.247,0-.8-.01-1.61.087-11.835,1.925-79.056,1.925-79.056s2.23.345,4.923.772c3.908.642,8.8,1.47,9.261,1.767.777.487,25.007,231.1,22.544,234.392" transform="translate(20.663 3.02)" fill="#fff"/>
        <path id="Path_68025" data-name="Path 68025" d="M353.969,301.808s-52.183,26.891-56.306,26.087c-2.157-.39-5.269-2.139-8.663-4.429-4.92-3.324-10.585-11.007-14.672-17.222L268.6,260.267l8.371,43.79s18.606,18.054,21.71,18.048c3.09-.021,46.542-22.245,46.542-22.245l-10.97-19.76,5.8-2.583Z" transform="translate(22.189 6.423)" fill="#e0e0e0"/>
        <path id="Path_68026" data-name="Path 68026" d="M265.288,364.447l-.68,2.705,14.176,3.4.037-2.972Z" transform="translate(21.86 15.029)" fill="#e0e0e0"/>
        <path id="Path_68027" data-name="Path 68027" d="M255.337,265.287s5.683,8.555,5.636,12.326c-.027,2.291-6.072,12.66-10.853,20.522.087-11.835,1.925-79.056,1.925-79.056s2.229.346,4.922.771c1.509,12.943,4.266,36.662,4.256,37.416-.012,1.03-5.885,8.021-5.885,8.021" transform="translate(20.663 3.02)" fill="#e0e0e0"/>
        <path id="Path_68028" data-name="Path 68028" d="M213.063,361.639c-1.428,2.6-18.167-9.227-18.167-9.227L190.18,355.6l6.532,5.6,4.477,11.711s-1.705,1.742-3.921,3.75c-.274.253-.561.5-.848.76a49.118,49.118,0,0,1-4.15,3.343c-.126.1-.262.186-.387.278a15.353,15.353,0,0,1-1.905,1.115,3.422,3.422,0,0,1-1.632.416l-5.385-8.154s-13.406-1.326-15.086-2.5c-.666-.467-2.067-3.738-3.513-7.51-.69-1.812-3.323-8.879-3.96-10.669l5.949-6.552,11.215-.779c1.321-.14,3.075-.292,5.034-.394v-.005c.964-.052,1.975-.089,3.009-.11a41.245,41.245,0,0,1,10.846.957,10.037,10.037,0,0,1,3.268,1.433c5.856,4.231,14.766,10.749,13.339,13.344" transform="translate(13.251 13.496)" fill="#f3a080"/>
        <path id="Path_68029" data-name="Path 68029" d="M190.462,379.06c-.126.1-.262.187-.387.278-.179-.365-.406-.849-.684-1.427-.638-1.309-1.526-3.065-2.527-4.945a32.526,32.526,0,0,0-2.95-4.634c-.232-.284-.444-.54-.629-.77-.207-.21-.381-.4-.532-.545-.29-.312-.459-.491-.459-.491s.232.083.648.257c.206.084.463.195.755.329.274.159.581.342.927.56a12.8,12.8,0,0,1,4.086,4.506,15.28,15.28,0,0,1,1.68,5.522c.052.537.069.993.071,1.36" transform="translate(15.059 15.201)" fill="#b54b57"/>
        <path id="Path_68030" data-name="Path 68030" d="M195.07,375.142c-.274.253-.561.5-.848.76a2.134,2.134,0,0,1-.116-.227c-.638-1.309-1.526-3.066-2.528-4.94a32.183,32.183,0,0,0-2.949-4.64c-.232-.284-.437-.539-.624-.762-.207-.215-.388-.4-.53-.551l-.46-.485s.225.081.643.25c.2.089.463.194.753.333.275.154.588.343.928.555a12.772,12.772,0,0,1,4.085,4.511,15.067,15.067,0,0,1,1.646,5.2" transform="translate(15.449 15.017)" fill="#b54b57"/>
        <path id="Path_68031" data-name="Path 68031" d="M197.4,273.83l-45.618,49.977,23.211,20.123,8.408,7.286-13.415,22.357-3.124,5.219s-3.488-1.861-8.726-4.931c-16.212-9.524-46.582-38.391-44.389-51.29,2.91-17.067,44.856-78.02,49.9-85.9,4.972-7.734,14.937-11.017,15.823-11.348.018-.018,17.927,48.5,17.927,48.5" transform="translate(9.387 3.536)" fill="#fff"/>
        <path id="Path_68032" data-name="Path 68032" d="M175.319,241.515s6.64,13.183,7.837,21-6.54,27.463-6.54,27.463L142.1,322.545l28.717,23.3,1.829-3.249-23.211-20.123s31.041-31.058,32.352-32.431,6.2-23.542,5.244-28.466-11.707-20.058-11.707-20.058" transform="translate(11.738 4.874)" fill="#e0e0e0"/>
        <path id="Path_68033" data-name="Path 68033" d="M180.006,342.165,166.59,364.522l-3.124,5.219s-3.488-1.861-8.725-4.931L171.6,334.879Z" transform="translate(12.783 12.587)" fill="#e0e0e0"/>
        <path id="Path_68034" data-name="Path 68034" d="M147.792,111.488l4.171-22.64,11.349,5.95Z" transform="translate(12.209 -7.739)" fill="#feb451"/>
        <path id="Path_68035" data-name="Path 68035" d="M142.224,113.62l-10-10.449,6.924-3.937Z" transform="translate(10.923 -6.881)" fill="#feb451"/>
        <path id="Path_68036" data-name="Path 68036" d="M153.929,117.481l12.279-9.216,3.829,6.225Z" transform="translate(12.716 -6.135)" fill="#feb451"/>
        <path id="Path_68037" data-name="Path 68037" d="M230.692,121.875l-3.26-22.9,12.713,2.043Z" transform="translate(18.788 -6.902)" fill="#feb451"/>
        <path id="Path_68038" data-name="Path 68038" d="M226.275,125.753l-12.866-6.76,5.338-5.964Z" transform="translate(17.63 -5.741)" fill="#feb451"/>
        <path id="Path_68039" data-name="Path 68039" d="M238.532,125.822l8.754-12.7,5.637,4.707Z" transform="translate(19.705 -5.734)" fill="#feb451"/>
      </g>
    </g>
    <path id="Path_68041" data-name="Path 68041" d="M358.286,372.31,329.6,391.456c-4.027,2.688-8.151,5.467-10.932,9.431s-3.958,9.436-1.639,13.686c3.206,5.874,11.139,6.9,17.823,6.588a107.407,107.407,0,0,0,41.6-10.549c10.462-5.056,20.486-12.282,25.529-22.751,4.727-9.816,4.559-26.92-7.783-31.111-12.75-4.332-26.349,9.181-35.909,15.56" transform="translate(-1784.912 23892.402)" fill="#c7d5ea"/>
    <path id="Path_68042" data-name="Path 68042" d="M283.319,53.546a514.088,514.088,0,0,1,57.121,7.076q-3.74-10.58-7.953-21.12,6.786-8.792,13.876-17.429A553.118,553.118,0,0,0,285.051,14.6q-.693,19.494-1.732,38.951" transform="translate(-1787.594 23864.205)" fill="#3362cb"/>
    <path id="Path_68043" data-name="Path 68043" d="M306.532,39.074q-11.9,6.046-23.212,12.614.388-7.3.73-14.6,11.226.749,22.483,1.984" transform="translate(-1787.594 23866.064)" fill="#7aa3ff"/>
    <path id="Path_68044" data-name="Path 68044" d="M131.466,69.508A495.328,495.328,0,0,0,79.541,87.192q1.025-10.914,2.377-21.853Q73.4,58.159,64.473,51.256a534.172,534.172,0,0,1,55.942-19.118q5.7,18.644,11.051,37.37" transform="translate(-1805.674 23865.654)" fill="#3362cb"/>
    <path id="Path_68045" data-name="Path 68045" d="M322.391,42.14A519.372,519.372,0,0,0,104.4,64.426q-6.262-18.449-12.858-36.8A558.37,558.37,0,0,1,325.475,3.252Q324.1,22.72,322.391,42.14" transform="translate(-1803.437 23863)" fill="#407bff"/>
    <path id="Path_68046" data-name="Path 68046" d="M103.419,59.99q12.649,3.555,24.829,7.736-2.007-7.022-4.064-14.033-10.461,2.931-20.765,6.3" transform="translate(-1802.456 23867.436)" fill="#7aa3ff"/>
    <path id="Path_68047" data-name="Path 68047" d="M102.033,35.04q.75-.235,1.5-.468,1.561,4.667,3.1,9.34,2.442-.755,4.894-1.486.182.57.363,1.139-3.185.95-6.356,1.94-1.738-5.236-3.5-10.465" transform="translate(-1802.571 23865.855)" fill="#fff"/>
    <path id="Path_68048" data-name="Path 68048" d="M118.951,36.258q-2.26.63-4.514,1.28.589,1.9,1.176,3.8,2.494-.719,5-1.413l.341,1.145q-3.241.9-6.468,1.838-1.639-5.268-3.3-10.531,3.162-.922,6.339-1.806.174.572.346,1.144-2.412.671-4.815,1.364.521,1.665,1.038,3.33,2.26-.651,4.525-1.283l.34,1.129" transform="translate(-1801.815 23865.525)" fill="#fff"/>
    <path id="Path_68049" data-name="Path 68049" d="M123.646,30.209q-1.791.476-3.58.961l-.344-1.162q4.362-1.187,8.748-2.3.162.583.326,1.167-1.807.46-3.609.93,1.351,4.726,2.682,9.452-.757.2-1.512.4-1.343-4.724-2.709-9.445" transform="translate(-1801.109 23865.289)" fill="#fff"/>
    <path id="Path_68050" data-name="Path 68050" d="M133.032,26.263a17.825,17.825,0,0,1-.644,4.153l-.949.352a21.313,21.313,0,0,0,.027-3.97q.783-.27,1.567-.535" transform="translate(-1800.142 23865.17)" fill="#fff"/>
    <path id="Path_68051" data-name="Path 68051" d="M138.167,34.823a6.014,6.014,0,0,0,2.887.065c1.547-.356,2.268-1.306,2-2.387-.248-1-1.019-1.432-2.752-1.622-2.083-.176-3.509-.795-3.9-2.3-.435-1.664.777-3.265,3.1-3.8a6.074,6.074,0,0,1,2.771-.075q-.073.612-.144,1.224a5.307,5.307,0,0,0-2.39.006c-1.627.372-2.019,1.391-1.831,2.12.258,1,1.1,1.321,2.881,1.518,2.178.243,3.41.893,3.793,2.467.4,1.656-.59,3.38-3.344,4.015a6.813,6.813,0,0,1-3.156.016l.084-1.249" transform="translate(-1799.739 23865.031)" fill="#fff"/>
    <path id="Path_68052" data-name="Path 68052" d="M162.195,31.054a12.23,12.23,0,0,1-3.508,1.282,6.725,6.725,0,0,1-4.727-.551,5.578,5.578,0,0,1-2.557-3.672c-.72-3.21,1.193-6.072,5.243-6.855a8.338,8.338,0,0,1,3.111-.076l-.133,1.209a6.939,6.939,0,0,0-2.761.041c-2.931.566-4.463,2.586-3.851,5.284.618,2.731,2.78,3.979,5.533,3.447a5.491,5.491,0,0,0,1.978-.679q-.339-1.609-.68-3.22-1.211.229-2.423.463-.12-.56-.243-1.121,1.967-.38,3.935-.748.544,2.6,1.08,5.194" transform="translate(-1798.505 23864.74)" fill="#fff"/>
    <path id="Path_68053" data-name="Path 68053" d="M170.588,24.819q-2.334.388-4.662.795.386,1.952.77,3.9,2.576-.45,5.159-.876.11.588.219,1.175-3.345.552-6.68,1.144-1.073-5.413-2.176-10.821,3.267-.583,6.544-1.126l.224,1.175q-2.489.412-4.971.848.343,1.71.682,3.421,2.334-.409,4.673-.8.109.578.219,1.158" transform="translate(-1797.516 23864.57)" fill="#fff"/>
    <path id="Path_68054" data-name="Path 68054" d="M175.948,19.281q-1.846.284-3.692.578-.109-.6-.22-1.192,4.5-.719,9.015-1.365c.067.4.134.8.2,1.2q-1.861.266-3.718.545.846,4.839,1.673,9.682-.781.117-1.559.236-.84-4.841-1.7-9.679" transform="translate(-1796.788 23864.43)" fill="#fff"/>
    <path id="Path_68055" data-name="Path 68055" d="M192.294,26.949q-2.743-5.224-5.59-10.418.853-.112,1.707-.22,1.364,2.567,2.7,5.142c.738,1.41,1.377,2.685,1.883,3.927l.035,0c.159-1.306.467-2.743.805-4.235q.645-2.821,1.3-5.639l1.7-.191q-1.447,5.713-2.831,11.432l-1.713.206" transform="translate(-1795.576 23864.266)" fill="#fff"/>
    <path id="Path_68056" data-name="Path 68056" d="M200.921,22.437q-.414,1.786-.821,3.574l-1.61.171q1.336-5.693,2.731-11.38l1.919-.191q2.779,5.274,5.451,10.576-.835.075-1.668.152-.843-1.666-1.7-3.328-2.157.2-4.308.427m3.852-1.5q-.784-1.522-1.577-3.04c-.361-.689-.624-1.321-.886-1.938l-.037,0c-.1.668-.218,1.354-.369,2.044q-.4,1.645-.8,3.291,1.832-.187,3.667-.362" transform="translate(-1794.602 23864.207)" fill="#fff"/>
    <path id="Path_68057" data-name="Path 68057" d="M219.413,24.015a8.58,8.58,0,0,1-3.159.746c-3.415.248-6.185-1.485-6.582-5.084-.378-3.433,1.98-5.991,5.826-6.272a7.373,7.373,0,0,1,2.987.284q-.14.591-.277,1.183a6.469,6.469,0,0,0-2.537-.28c-2.9.21-4.641,2.016-4.334,4.9.288,2.689,2.174,4.27,5.129,4.057a6.868,6.868,0,0,0,2.519-.635l.428,1.1" transform="translate(-1793.682 23864.105)" fill="#fff"/>
    <path id="Path_68058" data-name="Path 68058" d="M230.4,23.409a8.588,8.588,0,0,1-3.182.676c-3.426.173-6.165-1.622-6.484-5.228-.305-3.441,2.114-5.946,5.974-6.141a7.391,7.391,0,0,1,2.987.35q-.153.588-.3,1.177a6.511,6.511,0,0,0-2.535-.338c-2.911.147-4.7,1.914-4.451,4.8.228,2.695,2.085,4.316,5.051,4.168a6.887,6.887,0,0,0,2.54-.579l.4,1.113" transform="translate(-1792.767 23864.049)" fill="#fff"/>
    <path id="Path_68059" data-name="Path 68059" d="M234.132,12.55q.344,5.51.663,11.02l-1.575.056q-.335-5.508-.7-11.018.8-.031,1.608-.058" transform="translate(-1791.791 23864.037)" fill="#fff"/>
    <path id="Path_68060" data-name="Path 68060" d="M238.88,23.455q-.273-5.513-.573-11.025.88-.023,1.759-.043,2.14,2.743,4.237,5.5a29.477,29.477,0,0,1,2.351,3.554l.036-.016c-.2-1.472-.285-2.815-.351-4.534q-.089-2.308-.182-4.615.76-.01,1.521-.016.208,5.516.388,11.033l-1.6.017q-2.043-2.775-4.131-5.535a38.175,38.175,0,0,1-2.5-3.633l-.053.018c.162,1.389.266,2.713.355,4.545q.115,2.356.224,4.712l-1.486.037" transform="translate(-1791.313 23864.014)" fill="#fff"/>
    <path id="Path_68061" data-name="Path 68061" d="M253.527,19.808q-.6,1.733-1.2,3.468h-1.638q1.939-5.521,3.935-11.031.976,0,1.951.014,2.248,5.538,4.385,11.094l-1.694-.027q-.676-1.744-1.361-3.487-2.191-.024-4.38-.031m4.034-1.086q-.63-1.6-1.271-3.19c-.291-.722-.489-1.379-.689-2.02h-.037c-.171.654-.361,1.323-.586,1.993Q254.4,17.1,253.833,18.7q1.864.008,3.728.027" transform="translate(-1790.29 23864.012)" fill="#fff"/>
    <path id="Path_68062" data-name="Path 68062" d="M264.663,13.616q-1.9-.047-3.805-.081l-.013-1.214q4.64.084,9.288.245l-.007,1.214q-1.915-.067-3.828-.12,0,4.914-.013,9.828l-1.607-.043q0-4.914-.015-9.828" transform="translate(-1789.451 23864.018)" fill="#fff"/>
    <path id="Path_68063" data-name="Path 68063" d="M278.813,18.829q-2.418-.128-4.836-.234-.034,1.989-.069,3.98,2.675.119,5.352.263c-.013.4-.023.8-.036,1.2q-3.467-.188-6.931-.331.089-5.52.15-11.04,3.392.138,6.788.318c-.009.4-.018.8-.027,1.2q-2.577-.138-5.156-.25-.023,1.744-.052,3.489,2.421.106,4.845.234l-.028,1.18" transform="translate(-1788.505 23864.047)" fill="#fff"/>
    <path id="Path_68064" data-name="Path 68064" d="M282.65,13.32a25.291,25.291,0,0,1,3.463-.008,7.992,7.992,0,0,1,5.038,1.741,4.914,4.914,0,0,1,1.573,4.1,5.351,5.351,0,0,1-2.006,4.144,8.188,8.188,0,0,1-5.54,1.2c-1.135-.076-2.084-.186-2.887-.316q.193-5.427.358-10.858m1.276,9.86a11.531,11.531,0,0,0,1.612.188c3.409.231,5.351-1.32,5.5-4.3.147-2.6-1.456-4.388-4.891-4.622a10.145,10.145,0,0,0-1.9.023q-.149,4.357-.314,8.711" transform="translate(-1787.679 23864.096)" fill="#fff"/>
    <path id="Path_68065" data-name="Path 68065" d="M295.557,22.016q.1-3.936.191-7.874.9.078,1.8.158-.361,3.914-.732,7.827l-1.255-.112m-.6,2.3A.988.988,0,0,1,296.1,23.4a1.031,1.031,0,0,1,1.021,1.112.977.977,0,0,1-1.145.916,1.051,1.051,0,0,1-1.022-1.109" transform="translate(-1786.633 23864.168)" fill="#fff"/>
    <path id="Path_68066" data-name="Path 68066" d="M280.664,191.451l1.052-3.184.973,3.209a14.2,14.2,0,0,0,6.621,8.247h0a14.189,14.189,0,0,0-6.82,8.083l-1.052,3.185-.974-3.209a14.189,14.189,0,0,0-6.62-8.248,14.2,14.2,0,0,0,6.82-8.084" transform="translate(-1788.377 23878.553)" fill="#fff"/>
    <path id="Path_68067" data-name="Path 68067" d="M263.549,207.487l.6-1.8.551,1.816a8.027,8.027,0,0,0,3.746,4.666h0a8.03,8.03,0,0,0-3.859,4.573l-.594,1.8-.551-1.816a8.03,8.03,0,0,0-3.746-4.666,8.03,8.03,0,0,0,3.858-4.574" transform="translate(-1789.546 23879.992)" fill="#fff"/>
    <path id="Path_68068" data-name="Path 68068" d="M391.547,143.559l1.071-3.24.991,3.265a14.441,14.441,0,0,0,6.737,8.393A14.446,14.446,0,0,0,393.4,160.2l-1.071,3.24-.991-3.265a14.441,14.441,0,0,0-6.737-8.393,14.442,14.442,0,0,0,6.941-8.226" transform="translate(-1779.227 23874.592)" fill="#fff"/>
    <path id="Path_68069" data-name="Path 68069" d="M242.426,62.015l1.071-3.24.991,3.265a14.445,14.445,0,0,0,6.737,8.393,14.44,14.44,0,0,0-6.94,8.226l-1.071,3.24-.992-3.265a14.443,14.443,0,0,0-6.736-8.394,14.444,14.444,0,0,0,6.94-8.226" transform="translate(-1791.546 23867.855)" fill="#fff"/>
    <path id="Path_68070" data-name="Path 68070" d="M52.625,234.514l1.232-3.729L55,234.543a16.623,16.623,0,0,0,7.752,9.657h0a16.622,16.622,0,0,0-7.985,9.464l-1.232,3.729-1.14-3.757a16.625,16.625,0,0,0-7.752-9.658,16.62,16.62,0,0,0,7.985-9.465" transform="translate(-1807.312 23882.066)" fill="#fff"/>
    <path id="Path_68071" data-name="Path 68071" d="M34.552,199.759l.862-2.61.8,2.631a11.633,11.633,0,0,0,5.426,6.76h0a11.63,11.63,0,0,0-5.59,6.626l-.863,2.61-.8-2.631a11.637,11.637,0,0,0-5.427-6.761,11.638,11.638,0,0,0,5.592-6.626" transform="translate(-1808.608 23879.287)" fill="#fff"/>
  </g>
</svg>
