<svg xmlns="http://www.w3.org/2000/svg" width="31.064" height="36"><path data-name="Path 47329" d="M1.19 18.753h14.283v2.38H1.19z" fill="#5aaae7"/><path data-name="Path 47330" d="M1.19 18.753h14.283v1.19H1.19z" fill="#3d9ae2"/><path data-name="Path 47331" d="M16.663 16.372v1.785a.6.6 0 01-.6.6H.6a.6.6 0 01-.6-.6v-1.785a1.194 1.194 0 011.19-1.19h14.283a1.194 1.194 0 011.19 1.19z" fill="#1e81ce"/><path data-name="Path 47332" d="M30.904 30.644a1.19 1.19 0 01-.434 1.625l-6.189 3.57a1.134 1.134 0 01-.6.161 1.19 1.19 0 01-.6-2.22l1.547-.893 3.095-1.785 1.547-.893a1.186 1.186 0 011.625.434z" fill="#67cef3"/><path data-name="Path 47334" d="M27.768 22.836a1.194 1.194 0 01-.434 1.625l-1.03.6-6.189 3.571-1.03.6a1.171 1.171 0 01-.589.161 1.193 1.193 0 01-.6-2.226l1.03-.6 6.189-3.571 1.03-.6a1.171 1.171 0 01.589-.161 1.19 1.19 0 011.036.6z" fill="#67cef3"/><path data-name="Path 47335" d="M27.733 31.102l-3.095 1.785-1.385-2.392-.4-.7 3.095-1.785.4.7z" fill="#3db3e8"/><path data-name="Path 47336" d="M26.353 28.709l-2.9 1.678-.19.107-.4-.7 3.095-1.785z" fill="#3db3e8"/><path data-name="Path 47337" d="M26.977 27.412l-1.03.6-3.095 1.785-1.03.6a.6.6 0 01-.815-.214l-.488-.845-.4-.7 6.189-3.571.4.7.488.845a.6.6 0 01-.219.8z" fill="#66cef3"/><path data-name="Path 47338" d="M22.734 18.872l1.19 2.064 1.19 2.059-6.189 3.571-1.083-1.875-.672-1.172-.7-1.2-.676-1.183-.321-.553-1.053-1.827-2.065-3.571-.274-.47a.6.6 0 01.22-.815l.518-.3 4.118-2.38.518-.3a.6.6 0 01.815.22l.893 1.541 1.19 2.065 1.19 2.059z" fill="#91e1f4"/><path data-name="Path 47339" d="M16.042 9.672l.893 1.547-4.118 2.38-.893-1.547a.586.586 0 01.214-.809l.518-.3 2.059-1.19.518-.3a.586.586 0 01.809.214z" fill="#717171"/><path data-name="Path 47340" d="M15.473 31.846v1.785a1.785 1.785 0 01-1.783 1.786H3.57a2.38 2.38 0 01-2.38-2.381v-1.19z" fill="#5aaae7"/><path data-name="Path 47341" d="M1.19 21.134h14.283v10.712H1.19z" fill="#e6e7e8"/><path data-name="Path 47342" d="M13.23 7.178l1.488 2.577-2.063 1.19-1.488-2.577a.6.6 0 01.214-.815l.518-.3.518-.3a.589.589 0 01.809.22z" fill="#717171"/><path data-name="Path 47343" d="M11.902 26.489v1.19a.6.6 0 01-.6.6h-1.19v1.19a.6.6 0 01-.6.6H8.331a.6.6 0 01-.6-.6v-1.19h-1.18a.6.6 0 01-.6-.6v-1.19a.6.6 0 01.6-.6h1.19v-1.18a.6.6 0 01.6-.6h1.19a.6.6 0 01.6.6v1.19h1.19a.6.6 0 01.581.59z" fill="#d8d7da"/><path data-name="Path 47344" d="M11.307 25.894v1.19a.6.6 0 01-.6.6h-1.19v1.19a.6.6 0 01-.6.6H7.736a.6.6 0 01-.6-.6v-1.19h-1.18a.6.6 0 01-.6-.6v-1.19a.6.6 0 01.6-.6h1.19v-1.18a.6.6 0 01.6-.6h1.19a.6.6 0 01.6.6v1.19h1.19a.6.6 0 01.581.59z" fill="#ff9811"/><path data-name="Path 47345" d="M26.709 25.757l-6 3.464-.19.107-.4-.7 6.189-3.571z" fill="#3db3e8"/><path data-name="Path 47346" d="M7.229.611l1.02-.612 4.163 6.949-1.02.612z" fill="#888"/><g data-name="Group 19748" fill="#8a8b8c"><path data-name="Path 47347" d="M18.151 18.075l3.092-1.786.595 1.031-3.092 1.786z"/><path data-name="Path 47348" d="M15.771 13.952l3.092-1.786.595 1.031-3.092 1.786z"/><path data-name="Path 47349" d="M17.992 15.419l2.061-1.19.595 1.03-2.061 1.19z"/><path data-name="Path 47350" d="M20.532 22.197l3.092-1.786.595 1.031-3.092 1.786z"/><path data-name="Path 47351" d="M20.372 19.541l2.061-1.19.595 1.03-2.061 1.19z"/></g></svg>